<svg width="127" height="51" viewBox="0 0 127 51" fill="none" xmlns="http://www.w3.org/2000/svg">
<path d="M50.4916 20.7552C49.3781 14.7315 46.3636 9.76161 41.6544 5.82913C39.02 3.62934 36.049 2.02702 32.752 1.06563C27.5865 -0.433495 22.4157 -0.362884 17.31 1.3535C12.9593 2.8146 9.22232 5.26425 6.24038 8.76763C0.917412 15.0085 -0.96192 22.2271 0.455726 30.2604C1.24874 34.785 3.28016 38.7772 6.32185 42.2262C10.0045 46.3977 14.5996 49.0701 20.0149 50.2922C23.2141 51.0146 26.4676 51.0526 29.6994 50.5312C32.5945 50.064 35.3483 49.1352 37.874 47.6035C37.9718 47.4189 38.1944 47.4514 38.3302 47.3319C39.8837 46.5498 41.2307 45.4689 42.518 44.3228C45.1034 42.0307 47.0751 39.266 48.5525 36.1483C50.8826 31.2381 51.4693 26.0618 50.4916 20.7552ZM16.1204 20.6465C16.1204 22.2597 16.1204 23.8675 16.1204 25.4806C16.1204 29.2828 16.1204 33.0849 16.1204 36.887C16.1204 37.7017 16.115 37.7072 15.284 37.7072C14.6648 37.7072 14.0456 37.6963 13.4209 37.7126C13.019 37.7235 12.8506 37.5442 12.8561 37.164C12.8615 36.8327 12.8561 36.5013 12.8561 36.1755C12.8561 28.8211 12.8561 21.4667 12.8561 14.1069C12.8561 13.2107 12.8832 13.1835 13.8066 13.1835C14.3443 13.1835 14.882 13.2107 15.4198 13.1781C15.9629 13.1455 16.1422 13.3628 16.1367 13.8951C16.1042 16.1383 16.1204 18.3924 16.1204 20.6465ZM37.7382 36.4633C37.2656 36.8924 36.8148 37.3487 36.3857 37.8212C36.0435 38.196 35.7882 38.1851 35.4243 37.8158C33.5233 35.893 31.6005 33.992 29.6886 32.08C28.1514 30.5483 26.6143 29.022 25.0934 27.4795C24.7893 27.1699 24.4797 27.0667 24.056 27.0721C22.5895 27.0938 21.1175 27.0667 19.651 27.0884C19.1187 27.0993 18.896 26.8983 18.9177 26.3606C18.9394 25.7196 18.9286 25.0787 18.9231 24.4378C18.9177 23.9707 19.1241 23.7697 19.6021 23.7806C20.3897 23.8023 21.1773 23.786 21.9594 23.786C22.6818 23.786 23.4096 23.7534 24.132 23.7969C24.5557 23.824 24.8545 23.6448 25.1097 23.384C27.9396 20.4456 30.8455 17.5777 33.7677 14.7207C34.3109 14.1884 34.8377 13.6289 35.3592 13.0749C35.7122 12.7001 36.0327 12.6729 36.3966 13.0749C36.7985 13.5148 37.2222 13.9494 37.673 14.3404C38.1238 14.7369 38.0967 15.0411 37.673 15.4594C34.9735 18.1317 32.2903 20.8203 29.6017 23.509C29.1345 23.9761 28.6946 24.4704 28.1949 24.8995C27.7441 25.2905 27.7495 25.5567 28.1786 25.9803C31.0193 28.7831 33.8383 31.6129 36.6627 34.4319C37.0158 34.785 37.3526 35.1434 37.7219 35.4802C38.0804 35.817 38.1293 36.1048 37.7382 36.4633Z" fill="#F62D51"/>
<path d="M93.6627 15.8179C94.9174 13.0152 96.1395 10.3048 97.3344 7.58359C97.5191 7.16535 97.7472 7.0187 98.2089 7.02413C100.441 7.05129 102.679 7.05672 104.911 7.02413C105.531 7.01327 105.476 7.18708 105.243 7.62161C102.592 12.6241 99.9633 17.632 97.3127 22.6345C97.1009 23.031 96.9977 23.4167 96.9977 23.8675C97.0139 26.2248 96.9977 28.5821 97.014 30.9394C97.014 31.3359 96.9596 31.5206 96.4871 31.5152C94.586 31.488 92.6795 31.4935 90.7785 31.5152C90.3657 31.5206 90.2625 31.3903 90.2679 30.9938C90.2842 28.555 90.2733 26.1108 90.2788 23.672C90.2788 23.4221 90.2679 23.1886 90.143 22.955C87.4978 17.9525 84.858 12.9446 82.2129 7.94207C82.1857 7.88776 82.1477 7.8443 82.0608 7.71394C81.724 8.29512 81.4035 8.83285 81.0939 9.37058C79.3124 12.4449 77.5362 15.5191 75.733 18.5771C75.5048 18.9682 75.6461 19.2181 75.8307 19.5277C78.0251 23.2429 80.2086 26.9689 82.3975 30.6896C82.5333 30.9177 82.6528 31.1513 82.7832 31.3848C82.5822 31.5804 82.3649 31.4989 82.1748 31.4989C80.0457 31.5043 77.911 31.488 75.7818 31.5152C75.3202 31.5206 75.0812 31.3577 74.8585 30.9775C73.2507 28.2345 71.6104 25.5078 70.0135 22.7595C69.7419 22.2923 69.4486 22.1077 68.8946 22.1294C67.4606 22.1783 67.4606 22.1457 67.4606 23.5959C67.4606 26.013 67.4443 28.4355 67.4715 30.8525C67.4769 31.3468 67.3792 31.5261 66.8414 31.5152C64.9784 31.4772 63.1154 31.488 61.2523 31.5098C60.8287 31.5152 60.7363 31.3794 60.7363 30.9829C60.7472 23.1886 60.7472 15.3888 60.7363 7.59445C60.7363 7.18165 60.8232 7.0187 61.2795 7.02413C63.1643 7.05129 65.0436 7.04586 66.9283 7.02413C67.3792 7.0187 67.4769 7.17078 67.4715 7.58902C67.4552 10.2994 67.4715 13.0097 67.4498 15.7147C67.4443 16.1764 67.5856 16.247 68.031 16.3176C69.3074 16.5186 69.9646 15.9754 70.5567 14.8619C71.882 12.3634 73.3757 9.95719 74.7879 7.50211C74.9834 7.15992 75.2007 7.01327 75.6135 7.0187C80.1271 7.03499 84.6353 7.03499 89.149 7.0187C89.5618 7.0187 89.7628 7.13276 89.9366 7.52384C91.0664 10.093 92.2233 12.6513 93.3748 15.215C93.4454 15.3888 93.5323 15.5517 93.6627 15.8179Z" fill="#2C2D2A"/>
<path d="M125.899 13.4339C124.612 9.99024 122.048 7.88822 118.469 7.05175C116.367 6.56291 114.248 6.55204 112.135 6.99743C108.692 7.7307 106.177 9.64262 104.683 12.8527C103.744 14.8732 103.418 17.0187 103.418 19.5607C103.374 20.5112 103.521 21.7822 103.803 23.0315C104.645 26.8065 106.693 29.62 110.386 31.0431C112.619 31.9013 114.949 32.0317 117.295 31.7003C121.255 31.1463 124.232 29.1583 125.774 25.4051C127.387 21.4618 127.387 17.4152 125.899 13.4339ZM119.088 23.2651C118.409 24.9814 117.1 25.9972 115.183 26.0026C113.271 26.0026 112 24.9977 111.245 23.3031C110.674 22.0212 110.462 20.6579 110.506 19.262C110.462 17.9041 110.669 16.5842 111.201 15.3349C111.94 13.6131 113.2 12.5703 115.139 12.5322C116.904 12.4996 118.387 13.4936 119.093 15.2915C120.125 17.9312 120.131 20.6253 119.088 23.2651Z" fill="#2C2D2A"/>
<path d="M110.886 1.44608C111.875 1.42978 112.858 1.40806 113.846 1.40263C116.133 1.39719 118.42 1.41349 120.706 1.39176C121.184 1.38633 121.396 1.51669 121.331 2.0164C121.282 2.40204 121.396 2.79855 121.26 3.17876C121.184 3.21678 121.103 3.22764 121.021 3.22764C117.779 3.22764 114.536 3.22221 111.293 3.23851C110.897 3.23851 110.777 3.10272 110.821 2.73337C110.864 2.3097 110.75 1.86974 110.886 1.44608Z" fill="#FF0042"/>
<path d="M86.7421 42.0083C86.7421 40.3626 86.7421 38.82 86.7421 37.2774C86.7421 36.9787 86.6552 36.6582 87.1712 36.6582C87.6981 36.6582 87.5894 37.0004 87.5894 37.2883C87.5949 39.0861 87.6003 40.884 87.584 42.6818C87.584 42.8882 87.7578 43.225 87.3559 43.2793C87.0517 43.3228 86.7693 43.3228 86.5466 42.9969C85.4548 41.3946 84.3305 39.8085 83.2224 38.2171C83.1681 38.1356 83.1464 38.027 83.0269 38.0161C83.0269 39.3686 83.0269 40.7156 83.0269 42.0681C83.0269 42.3342 83.0106 42.6058 83.0323 42.8719C83.054 43.1924 82.9346 43.301 82.6087 43.3065C82.2773 43.3119 82.1959 43.1924 82.2013 42.8774C82.2122 40.998 82.2013 39.1187 82.2122 37.234C82.2122 37.0493 82.0492 36.7288 82.4131 36.6908C82.7064 36.6582 82.9997 36.6202 83.2279 36.9569C84.2707 38.4941 85.3462 40.0095 86.4108 41.5358C86.4977 41.6607 86.59 41.7965 86.7421 42.0083Z" fill="#2C2D2B"/>
<path d="M76.6331 39.3636C76.5136 37.7396 75.2752 36.5718 73.662 36.5501C71.7827 36.5283 70.5226 37.8971 70.5117 40.0209C70.5226 40.1458 70.5389 40.3087 70.5443 40.4717C70.6529 42.1392 71.837 43.345 73.4013 43.3993C75.134 43.4536 76.3996 42.4162 76.6168 40.7215C76.6766 40.2761 76.6657 39.8144 76.6331 39.3636ZM75.7043 41.0963C75.373 42.1935 74.4714 42.7801 73.3361 42.6552C72.2498 42.5411 71.446 41.6503 71.3536 40.4608C71.3428 40.2979 71.3536 40.1295 71.3536 39.9665C71.3536 38.6521 71.875 37.7504 72.8256 37.4191C74.3681 36.8868 75.7423 37.9134 75.8673 39.6895C75.9053 40.1729 75.8455 40.6401 75.7043 41.0963Z" fill="#2D2D2B"/>
<path d="M104.994 43.2899C104.434 43.2899 103.875 43.2736 103.321 43.2953C102.989 43.3062 102.902 43.1758 102.902 42.8608C102.913 40.938 102.913 39.0152 102.902 37.0924C102.902 36.772 103 36.6579 103.326 36.6634C104.38 36.6796 105.433 36.6796 106.493 36.6634C106.797 36.6579 106.949 36.734 106.943 37.0762C106.938 37.4183 106.737 37.4183 106.493 37.4183C105.727 37.4129 104.961 37.4292 104.195 37.4129C103.853 37.4021 103.733 37.5053 103.717 37.8637C103.646 39.5312 103.636 39.5312 105.271 39.5312C105.542 39.5312 105.808 39.5367 106.08 39.5312C106.335 39.5258 106.558 39.5041 106.563 39.8951C106.569 40.2754 106.379 40.2754 106.102 40.2754C105.461 40.2645 104.82 40.2917 104.179 40.2645C103.82 40.2482 103.733 40.3786 103.723 40.7208C103.657 42.5512 103.646 42.5512 105.482 42.5512C105.895 42.5512 106.308 42.5621 106.721 42.5458C107.025 42.5349 107.112 42.6653 107.112 42.9531C107.112 43.2356 106.981 43.3008 106.732 43.3008C106.156 43.2845 105.575 43.2899 104.994 43.2899Z" fill="#2D2D2C"/>
<path d="M94.874 43.4046C94.3743 43.41 93.8909 43.3286 93.4129 43.1819C93.0653 43.0787 93.011 42.8343 93.0816 42.5627C93.1848 42.1554 93.4455 42.4595 93.6139 42.503C94.244 42.6605 94.874 42.742 95.5204 42.6279C96.1994 42.5084 96.5687 42.1228 96.6013 41.547C96.6393 40.8952 96.2211 40.6345 95.6888 40.4716C95.1945 40.3195 94.6948 40.2 94.206 40.037C93.5161 39.8035 93.0925 39.3255 93.0708 38.5759C93.049 37.8101 93.3532 37.1909 94.0539 36.8487C95.0044 36.3816 95.9875 36.5228 96.9598 36.827C97.2965 36.9302 97.2314 37.2235 97.1879 37.4516C97.1282 37.7829 96.8892 37.5548 96.7534 37.5168C96.2102 37.3647 95.6671 37.2506 95.1022 37.3104C94.4178 37.3864 93.9941 37.7558 93.9344 38.3098C93.8746 38.8312 94.1897 39.2169 94.8795 39.4287C95.276 39.5536 95.6779 39.6351 96.0744 39.7546C97.0032 40.037 97.4703 40.5911 97.4758 41.4112C97.4866 42.2966 96.9978 42.9484 96.1016 43.2525C95.6996 43.3829 95.2923 43.4046 94.874 43.4046Z" fill="#2D2D2C"/>
<path d="M63.9233 43.4153C62.5926 43.3935 61.4248 43.0296 60.8382 41.6934C60.2081 40.2541 60.3385 38.8473 61.3542 37.636C62.3101 36.4954 63.6191 36.4031 64.9988 36.6747C65.3735 36.7507 65.3953 37.0006 65.3464 37.2776C65.2703 37.7067 64.977 37.4134 64.8141 37.3808C62.9185 37.0277 61.5171 37.8859 61.365 39.5262C61.1423 41.8944 62.4296 43.0133 64.8847 42.6005C65.0422 42.5734 65.3084 42.3452 65.3518 42.7363C65.379 42.9753 65.4224 43.2523 65.0476 43.2903C64.9064 43.3066 64.7652 43.3609 64.624 43.3772C64.3959 43.3935 64.1677 43.399 63.9233 43.4153Z" fill="#2D2D2C"/>
<path d="M119.067 39.9552C119.067 39.0699 119.056 38.1791 119.073 37.2938C119.078 37.0222 118.915 36.6637 119.464 36.6583C120.039 36.6528 119.898 37.0276 119.898 37.3263C119.904 38.8744 119.92 40.4224 119.893 41.9649C119.882 42.4212 120.007 42.5787 120.474 42.5515C121.213 42.5135 121.962 42.5515 122.701 42.5352C123.01 42.5298 123.146 42.6167 123.141 42.9535C123.135 43.3065 122.918 43.2848 122.685 43.2848C121.609 43.2848 120.539 43.2739 119.464 43.2902C119.127 43.2957 119.051 43.1653 119.051 42.8557C119.078 41.8943 119.067 40.9275 119.067 39.9552Z" fill="#30302D"/>
<path d="M113.363 39.9552C113.363 40.9274 113.352 41.8942 113.368 42.8665C113.373 43.1815 113.281 43.3065 112.95 43.3065C112.64 43.3065 112.51 43.225 112.51 42.8882C112.521 40.9491 112.521 39.0101 112.51 37.071C112.51 36.7234 112.656 36.669 112.955 36.6636C113.303 36.6527 113.368 36.8103 113.363 37.1144C113.352 38.0595 113.363 39.0046 113.363 39.9552Z" fill="#363635"/>
<path d="M110.886 1.44629C110.886 1.81564 110.919 2.19042 110.875 2.55433C110.821 3.05947 111.022 3.17897 111.5 3.17354C114.65 3.15724 117.8 3.16267 120.951 3.16267C121.054 3.16267 121.157 3.1681 121.26 3.17354C121.141 3.3908 120.934 3.30933 120.761 3.30933C117.621 3.31476 114.476 3.30389 111.337 3.32019C110.886 3.32019 110.658 3.21156 110.745 2.73358C110.826 2.31534 110.582 1.85366 110.886 1.44629Z" fill="#F62D51"/>
<path d="M37.875 47.6036C37.8967 47.2886 38.1357 47.3483 38.3313 47.332C38.2335 47.5113 38.0705 47.5819 37.875 47.6036Z" fill="#F41452"/>
</svg>
