<svg width="219" height="61" viewBox="0 0 219 61" fill="none" xmlns="http://www.w3.org/2000/svg">
<g clip-path="url(#clip0_302_178)">
<path d="M30.2916 0C13.5626 0 0 13.5626 0 30.2916C0 47.0205 13.5626 60.5831 30.2916 60.5831C47.0205 60.5831 60.5831 47.0205 60.5831 30.2916C60.5831 13.5626 47.0374 0 30.2916 0ZM47.5285 37.3015C46.6649 38.165 45.8183 38.165 44.9378 37.2845L38.3682 30.7149C38.2496 30.5963 38.1311 30.4947 38.0295 30.3932V42.9229H34.5246V29.3264C34.5246 28.9878 34.3891 28.8354 34.1013 28.8354H26.5665C26.2617 28.8354 26.1432 29.0047 26.1432 29.3264V42.9229H22.6382V30.3932C22.5197 30.4947 22.4012 30.5963 22.2996 30.7149L15.7299 37.2845C14.8495 38.1819 14.0029 38.1819 13.1393 37.3015L6.94217 31.172C6.07863 30.3085 6.07863 29.4619 6.9591 28.5814L17.8634 17.6771L20.6233 20.4371L11.48 29.5804C11.2768 29.7836 11.2429 29.9529 11.463 30.1561L14.3415 33.0346C14.5278 33.2208 14.714 33.2208 14.9341 33.0176L19.6074 28.3444C21.1143 26.8374 22.4689 25.9908 23.7219 25.6352C24.0775 25.4828 24.5008 25.432 25.0426 25.432H35.5574C36.0993 25.432 36.5226 25.4998 36.8782 25.6352C38.1311 25.9908 39.5026 26.8374 40.9927 28.3444L45.6659 33.0176C45.8691 33.2208 46.0723 33.2208 46.2585 33.0346L49.137 30.1561C49.3402 29.9529 49.3233 29.7836 49.1201 29.5804L39.9767 20.4371L42.7367 17.6771L53.6409 28.5814C54.5214 29.4788 54.5214 30.3085 53.6579 31.172L47.5285 37.3015Z" fill="#5C16FF"/>
<path d="M84.271 9.51562C89.757 9.51562 92.0936 12.902 92.0936 16.7964C92.0936 20.4707 89.9602 24.4498 84.271 24.4498H76.7023C76.3129 24.4498 76.0927 24.636 76.0927 25.0593V33.864H71.8428V24.2296C71.8428 21.4866 72.9942 20.3691 75.6694 20.3691H84.4403C86.8616 20.3691 87.8267 18.7098 87.8267 17.0166C87.8267 15.2556 86.7769 13.7656 84.4741 13.7656H71.792V9.51562H84.271Z" fill="black"/>
<path d="M115.815 9.51562V13.7656H103.624C101.067 13.7656 99.9499 14.9508 99.9499 16.8303C99.9499 18.8114 101.22 19.7088 103.658 19.7088H115.646V23.5693H103.556C101.101 23.5693 99.8483 24.5513 99.8483 26.5324C99.8483 28.4457 101.034 29.5971 103.523 29.5971H115.866V33.864H103.523C97.7487 33.864 95.4121 31.0194 95.4121 27.2266C95.4121 24.4498 96.682 22.5703 98.9171 21.639C96.6482 20.7078 95.4968 18.8283 95.4968 16.153C95.4968 12.2586 97.9181 9.51562 103.658 9.51562H115.815Z" fill="black"/>
<path d="M125.585 33.8645H121.335V14.3925C121.335 11.2093 123.147 9.09277 126.923 9.09277C130.309 9.09277 131.833 10.8198 132.832 13.5967L139.943 29.1404C140.231 29.7161 140.705 30.1563 141.501 30.1563C142.399 30.1563 142.94 29.6145 142.94 28.7848V9.51608H147.241V28.9711C147.241 32.1882 145.395 34.3047 141.654 34.3047C138.267 34.3047 136.709 32.5776 135.693 29.8008L128.582 14.2571C128.26 13.529 127.82 13.2073 127.058 13.2073C126.076 13.2073 125.585 13.7491 125.585 14.6126V33.8645Z" fill="black"/>
<path d="M169.694 9.51562V13.7656H162.582V33.864H158.281V13.7656H151.17V9.51562H169.694Z" fill="black"/>
<path d="M193.145 9.51562V13.7656H180.954C178.397 13.7656 177.279 14.9508 177.279 16.8303C177.279 18.8114 178.549 19.7088 180.987 19.7088H192.975V23.5693H180.886C178.431 23.5693 177.178 24.5513 177.178 26.5324C177.178 28.4457 178.363 29.5971 180.852 29.5971H193.196V33.864H180.835C175.061 33.864 172.725 31.0194 172.725 27.2266C172.725 24.4498 173.995 22.5703 176.23 21.639C173.961 20.7078 172.809 18.8283 172.809 16.153C172.809 12.2586 175.231 9.51562 180.971 9.51562H193.145Z" fill="black"/>
<path d="M218.221 9.51562V13.7656H208.807C204.116 13.7656 202.051 16.1192 202.051 21.7067C202.051 27.2605 204.066 29.614 208.807 29.614H218.221V33.864H208.807C201.695 33.864 197.801 29.8511 197.801 21.7067C197.801 13.5116 201.729 9.51562 208.807 9.51562H218.221Z" fill="black"/>
<path d="M74.0107 51.5079H72.0635L75.6023 42.5508C75.9748 41.6026 76.669 41.2471 77.7188 41.2471C78.7686 41.2471 79.4459 41.6026 79.8184 42.5508L83.2217 51.5079H81.2745L78.2098 43.3974C78.1252 43.1604 77.9559 43.0588 77.7188 43.0588C77.4818 43.0588 77.3124 43.1604 77.2108 43.3974L74.0107 51.5079Z" fill="black"/>
<path d="M99.9849 41.4326V43.1936H94.8206C93.9063 43.1936 93.4999 43.6846 93.4999 44.3957C93.4999 45.0053 93.8216 45.5979 94.9899 45.5979H97.3604C100.103 45.5979 100.747 47.1218 100.747 48.578C100.747 50.2881 99.8325 51.5411 97.5297 51.5411H91.9083V49.7802H97.5805C98.5287 49.7802 98.969 49.2553 98.969 48.5272C98.969 47.8668 98.6303 47.2742 97.3773 47.2742H95.0238C92.3316 47.2742 91.7051 45.7672 91.7051 44.3619C91.7051 42.6856 92.6025 41.4665 94.8375 41.4665H99.9849V41.4326Z" fill="black"/>
<path d="M117.966 41.4326V43.1936H112.802C111.888 43.1936 111.481 43.6846 111.481 44.3957C111.481 45.0053 111.803 45.5979 112.971 45.5979H115.325C118.068 45.5979 118.711 47.1218 118.711 48.578C118.711 50.2881 117.797 51.5411 115.494 51.5411H109.89V49.7802H115.562C116.51 49.7802 116.95 49.2553 116.95 48.5272C116.95 47.8668 116.612 47.2742 115.359 47.2742H113.005C110.313 47.2742 109.687 45.7672 109.687 44.3619C109.687 42.6856 110.584 41.4665 112.819 41.4665H117.966V41.4326Z" fill="black"/>
<path d="M129.92 41.4326V51.5242H128.159V41.4326H129.92Z" fill="black"/>
<path d="M147.614 41.4326V43.1936H142.45C141.535 43.1936 141.129 43.6846 141.129 44.3957C141.129 45.0053 141.451 45.5979 142.619 45.5979H144.973C147.716 45.5979 148.359 47.1218 148.359 48.578C148.359 50.2881 147.445 51.5411 145.142 51.5411H139.521V49.7802H145.193C146.141 49.7802 146.581 49.2553 146.581 48.5272C146.581 47.8668 146.243 47.2742 144.99 47.2742H142.636C139.944 47.2742 139.317 45.7672 139.317 44.3619C139.317 42.6856 140.215 41.4665 142.45 41.4665H147.614V41.4326Z" fill="black"/>
<path d="M164.242 41.4326V43.1936H161.295V51.5242H159.517V43.1936H156.571V41.4326H164.242Z" fill="black"/>
<path d="M173.335 51.507H171.388L174.927 42.5499C175.299 41.6017 175.993 41.2461 177.043 41.2461C178.093 41.2461 178.77 41.6017 179.143 42.5499L182.546 51.507H180.582L177.517 43.3965C177.432 43.1594 177.263 43.0578 177.026 43.0578C176.789 43.0578 176.62 43.1594 176.518 43.3965L173.335 51.507Z" fill="black"/>
<path d="M193.264 51.5073H191.503V43.4307C191.503 42.11 192.248 41.2295 193.823 41.2295C195.228 41.2295 195.854 41.9406 196.278 43.092L199.224 49.5262C199.342 49.7633 199.546 49.9495 199.867 49.9495C200.24 49.9495 200.46 49.7294 200.46 49.3738V41.3988H202.238V49.4585C202.238 50.7961 201.476 51.6766 199.918 51.6766C198.513 51.6766 197.869 50.9655 197.446 49.8141L194.5 43.3799C194.364 43.0751 194.178 42.9396 193.873 42.9396C193.467 42.9396 193.264 43.1598 193.264 43.5153V51.5073Z" fill="black"/>
<path d="M219 41.4326V43.1936H216.054V51.5242H214.276V43.1936H211.33V41.4326H219Z" fill="black"/>
</g>
<defs>
<clipPath id="clip0_302_178">
<rect width="219" height="60.6" fill="white"/>
</clipPath>
</defs>
</svg>
