<svg width="22" height="20" viewBox="0 0 22 20" fill="none" xmlns="http://www.w3.org/2000/svg">
<path d="M18.114 3.6364C21.6287 7.15112 21.6287 12.8496 18.114 16.3643M15.4626 6.28813C17.5129 8.33839 17.5129 11.6625 15.4626 13.7128M5.75 6.25041L10.4697 1.53074C10.9421 1.05827 11.75 1.3929 11.75 2.06107V17.9398C11.75 18.6079 10.9421 18.9426 10.4697 18.4701L5.75 13.7504H3.50905C2.62971 13.7504 1.8059 13.2439 1.57237 12.3962C1.36224 11.6334 1.25 10.83 1.25 10.0004C1.25 9.17083 1.36224 8.36745 1.57237 7.60465C1.8059 6.75689 2.62971 6.25041 3.50905 6.25041H5.75Z" stroke="white" stroke-width="1.5" stroke-linecap="round" stroke-linejoin="round"/>
</svg>
