<svg width="115" height="86" viewBox="0 0 115 86" fill="none" xmlns="http://www.w3.org/2000/svg">
<path d="M26.3203 84.7926C26.3203 85.1754 26.5229 85.6257 26.0726 85.9184C19.7684 85.9184 13.4641 86.076 7.15984 85.8734C3.96268 85.7608 1.26085 83.3066 0.427789 79.9744C0.337728 79.6592 0.270183 79.3214 0.180122 79.0062H0C0.0675456 78.9612 0.135091 78.9612 0.202637 78.9612H0.225152C0.270183 78.9837 0.315213 79.0062 0.360243 79.0287C0.697972 79.389 0.765517 79.8843 0.923124 80.3346C2.00385 83.5543 4.77323 85.5581 8.17302 85.5581C13.5542 85.5581 18.9353 85.5581 24.3164 85.5581C24.8343 85.5581 25.3746 85.6707 25.8024 85.288C26.1402 84.8151 26.0276 84.2748 26.0276 83.7794C26.0276 71.0133 26.0276 58.2472 26.0276 45.4586C26.0276 44.8732 26.0051 44.2652 26.0726 43.6798C26.0726 43.6573 26.0726 43.6573 26.0951 43.6348C26.1402 43.4772 26.1852 43.3646 26.2753 43.2971C26.2978 43.2746 26.3428 43.2521 26.3653 43.2295C26.3653 43.2295 26.3878 43.2295 26.3878 43.207V43.2521C26.3878 53.5415 26.3653 63.8535 26.3653 74.1429C26.3203 77.7228 26.3428 81.2577 26.3203 84.7926Z" fill="white"/>
<path d="M88.5964 84.9956C88.5964 85.0181 88.5964 85.0406 88.5738 85.0631C88.5513 85.1307 88.5063 85.1982 88.4613 85.2433V85.2658C88.4387 85.2883 88.4387 85.3108 88.4162 85.3333C88.3937 85.3558 88.3712 85.3784 88.3487 85.4009C88.3487 85.3558 88.3487 85.3108 88.3262 85.2658C88.3487 82.7891 88.3487 80.2899 88.3487 77.8132C88.3487 66.6907 88.3487 55.5457 88.3487 44.4232C88.3487 43.9729 88.3262 43.5451 88.3262 43.0948V43.0723C88.3712 43.0948 88.4162 43.1173 88.4387 43.1623C88.4838 43.2299 88.5288 43.2974 88.5738 43.3875C88.5964 43.4325 88.5964 43.4775 88.6189 43.5226C88.6864 44.0404 88.6639 44.5583 88.6639 45.0761C88.6639 57.8197 88.6639 70.5633 88.6639 83.307C88.6864 83.8698 88.754 84.4327 88.5964 84.9956Z" fill="white"/>
<path d="M6.70892 1.37432C6.7542 1.30639 6.77684 1.26111 6.82213 1.21582C6.79948 1.23846 6.79949 1.28375 6.77684 1.30639C6.7542 1.32903 6.7542 1.32903 6.73156 1.35167C6.73156 1.37432 6.70892 1.39696 6.70892 1.37432C6.66363 1.4196 6.64099 1.44224 6.5957 1.44224C6.64099 1.4196 6.68627 1.39696 6.70892 1.37432Z" fill="white"/>
<path d="M8.69086 0.63048C8.80344 0.540419 8.91602 0.450358 9.02859 0.382812C8.98356 0.450358 8.91602 0.517904 8.84847 0.607965C8.82596 0.63048 8.80344 0.652995 8.78093 0.67551C8.69086 0.743056 8.6008 0.788086 8.48823 0.788086C8.42068 0.765571 8.33062 0.743056 8.26308 0.720541C8.21804 0.698025 8.1505 0.698025 8.10547 0.67551C8.21804 0.652995 8.35314 0.652995 8.46571 0.63048C8.55577 0.652995 8.62332 0.652995 8.69086 0.63048Z" fill="white"/>
<path d="M11.1467 0.179091C11.2593 0.111545 11.3493 0.0665148 11.4394 0.0214844C11.3944 0.0665148 11.3493 0.13406 11.2818 0.179091C11.2593 0.224121 11.2142 0.246637 11.1917 0.291667C10.9666 0.449273 10.7414 0.561849 10.4487 0.494304L10.3812 0.404243C10.3362 0.359213 10.2911 0.314182 10.2461 0.269152C10.3136 0.291667 10.4037 0.336697 10.4712 0.381728C10.6964 0.336697 10.9216 0.269152 11.1467 0.179091Z" fill="white"/>
<path d="M13.3966 0.406088L13.4191 0.428603L13.3966 0.451118C13.3966 0.451118 13.3966 0.451118 13.3741 0.451118C13.1039 0.541179 12.8787 0.428603 12.6536 0.270996C12.6311 0.225966 12.6086 0.203451 12.6086 0.180935C12.586 0.135905 12.5635 0.11339 12.541 0.0683594C12.6086 0.0908746 12.6536 0.135905 12.6986 0.180935C12.9463 0.248481 13.1714 0.338542 13.3966 0.406088Z" fill="white"/>
<path d="M15.1769 0.653502C15.2222 0.676144 15.2675 0.698787 15.3128 0.721429C15.2902 0.721429 15.2675 0.744071 15.2449 0.744071C15.2222 0.721429 15.1996 0.698787 15.1769 0.653502C15.1543 0.676144 15.1543 0.653502 15.1543 0.653502C15.1543 0.653502 15.1543 0.653502 15.1769 0.653502L15.1996 0.630859C15.1996 0.653502 15.1996 0.653502 15.1769 0.653502Z" fill="white"/>
<path d="M102.06 0.178711C102.037 0.223741 101.992 0.268772 101.97 0.313802C101.767 0.426378 101.564 0.426378 101.339 0.358833C101.317 0.336317 101.294 0.336317 101.272 0.313802C101.249 0.313802 101.249 0.291287 101.227 0.291287C101.249 0.268772 101.294 0.246257 101.317 0.223741C101.542 0.201226 101.767 0.201226 101.992 0.178711H102.06Z" fill="white"/>
<path d="M104.451 0.339193C104.428 0.339193 104.428 0.361708 104.406 0.361708C104.383 0.361708 104.383 0.384223 104.361 0.384223C104.338 0.384223 104.338 0.406738 104.316 0.406738C104.271 0.429254 104.226 0.429254 104.18 0.451769C104 0.496799 103.798 0.474284 103.618 0.384223C103.55 0.316678 103.505 0.271647 103.438 0.204102H103.55C103.843 0.226617 104.135 0.249132 104.428 0.271647C104.428 0.294162 104.451 0.316678 104.451 0.339193Z" fill="white"/>
<path d="M108.008 1.35343C108.036 1.35343 108.036 1.32506 108.008 1.35343Z" fill="white"/>
<path d="M113.677 7.47542C113.655 7.45291 113.632 7.45291 113.632 7.45291C113.542 7.38536 113.475 7.31782 113.43 7.22776C113.43 7.20524 113.43 7.18273 113.43 7.16021V7.1377C113.475 7.16021 113.52 7.16021 113.565 7.18273C113.542 7.25027 113.565 7.31782 113.61 7.36285C113.655 7.40788 113.655 7.45291 113.677 7.47542Z" fill="white"/>
<path d="M114.49 23.8876V79.4552C114.22 79.6353 114.31 79.928 114.242 80.1532C113.274 83.5079 110.572 85.782 107.487 85.8495C101.206 86.0071 94.924 85.8945 88.6422 85.8945C88.5747 85.872 88.5296 85.8495 88.4846 85.8045V85.4217V85.2416C88.5296 71.5749 88.4846 57.9306 88.5071 44.2639C88.5071 43.8811 88.5296 43.4984 88.4846 43.1381C88.4846 43.1156 88.4846 43.0706 88.4846 43.0481C88.4846 42.9805 88.4621 42.913 88.4846 42.868C88.4846 42.8004 88.5071 42.7554 88.5296 42.6878C88.5522 42.6428 88.5747 42.5978 88.6197 42.5753L88.6422 42.5528C88.6422 42.5528 88.6422 42.5528 88.6647 42.5528C95.9822 37.7345 102.714 32.1282 109.807 26.9947C111.067 26.0716 112.283 25.1035 113.567 24.2029C113.814 24.0002 114.039 23.5724 114.49 23.8876Z" fill="#00A94B"/>
<path d="M114.487 12.497V22.3137C114.262 22.7865 113.857 23.1242 113.429 23.4394C105.549 29.3384 97.6683 35.2599 89.788 41.1589C89.4503 41.4066 89.1576 41.9019 88.6172 41.7218C88.5947 41.7218 88.5947 41.7218 88.5722 41.6993C88.5722 41.6993 88.5497 41.6993 88.5497 41.6767C88.5272 41.6542 88.4821 41.6542 88.4596 41.6317C88.4371 41.5867 88.3921 41.5191 88.3695 41.4741C88.347 41.4066 88.3245 41.339 88.302 41.2715C88.302 41.1364 88.302 40.9788 88.302 40.8437V40.8212C88.257 30.194 88.2119 19.5443 88.302 8.91711V8.89459C88.302 8.80453 88.302 8.71447 88.302 8.62441C88.302 8.6019 88.3245 8.55687 88.3245 8.51184C88.3695 8.37674 88.4146 8.26417 88.5271 8.19662C88.5497 8.17411 88.5497 8.17411 88.5722 8.17411C91.4316 6.77816 93.6156 4.4591 96.2949 2.81549C96.7452 2.5453 97.1505 2.23009 97.6458 2.04997C98.2087 1.84733 98.5915 1.48709 98.8616 0.991754C98.8842 0.969239 98.8841 0.946724 98.9067 0.924208C98.9517 0.924208 98.9967 0.901693 99.0418 0.901693C99.6497 0.58648 100.303 0.428874 101.001 0.428874C101.023 0.406359 101.068 0.383843 101.091 0.361328C101.113 0.361328 101.113 0.383843 101.136 0.383843C102.104 0.946724 103.117 0.991754 104.13 0.428874C104.198 0.406359 104.22 0.406359 104.22 0.406359C104.243 0.383843 104.288 0.383843 104.31 0.383843C104.333 0.383843 104.333 0.383843 104.355 0.383843C104.378 0.383843 104.423 0.383843 104.445 0.383843C104.468 0.383843 104.49 0.383843 104.513 0.406359L104.535 0.428874C105.031 0.834148 105.594 0.924208 106.202 0.811632C106.224 0.811632 106.247 0.811632 106.292 0.789117C106.404 0.811632 106.472 0.856663 106.562 0.924208C106.584 0.969239 106.584 0.991754 106.607 1.03678C106.9 1.62218 107.485 1.8023 108.025 2.00494C108.881 2.32015 109.466 3.15321 110.412 3.24328C110.457 3.24328 110.479 3.24328 110.525 3.24328C110.547 3.28831 110.592 3.31082 110.615 3.35585C110.862 3.60352 111.11 3.82867 111.335 4.07634C111.403 4.12137 111.448 4.1664 111.515 4.23394C111.538 4.32401 111.538 4.39155 111.56 4.48161C111.74 5.29216 112.033 5.99013 112.889 6.30534C112.934 6.32786 112.979 6.32786 113.024 6.35037C113.046 6.39541 113.069 6.44044 113.091 6.48547C113.204 6.71062 113.294 6.91325 113.384 7.13841H113.406C113.406 7.16092 113.406 7.16092 113.406 7.16092C113.204 7.99399 113.519 8.69196 113.879 9.36741C113.992 9.59257 114.127 9.81772 114.262 10.0654C114.285 10.0879 114.285 10.0879 114.307 10.1104C114.375 10.1554 114.42 10.223 114.487 10.268V10.7183C113.722 11.3037 113.722 11.9116 114.487 12.497Z" fill="#FFBC00"/>
<path d="M88.5969 41.7431C97.2202 35.2587 105.866 28.7969 114.489 22.3125C114.489 22.8303 114.489 23.3482 114.489 23.866C111.652 25.96 108.816 28.0539 106.001 30.1478C103.187 32.2642 100.372 34.4257 97.5579 36.5421C95.0362 38.4334 92.447 40.2796 89.9478 42.2385C89.4975 42.5987 89.0922 42.5987 88.6419 42.6212C88.3267 42.351 88.3492 42.0583 88.5969 41.7431Z" fill="#00A94B"/>
<path d="M88.6189 85.9186C88.5513 85.896 88.5063 85.8735 88.4613 85.8285C88.3487 85.7159 88.3712 85.5583 88.3487 85.4007C88.3487 85.3557 88.3487 85.3107 88.3262 85.2656C88.3712 85.2881 88.3937 85.3107 88.4162 85.3332C88.4387 85.3557 88.4613 85.4007 88.4613 85.4458V85.4683C88.4838 85.6259 88.4613 85.8285 88.6189 85.9186Z" fill="white"/>
<path d="M0.225152 78.9841L0.202637 79.0066H0C0.0675456 78.9616 0.135091 78.9616 0.202637 78.9616C0.202637 62.5029 0.202637 46.0218 0.202637 29.5632C0.202637 27.6719 0.225152 25.7806 0.247667 23.8894V12.7218C0.225152 12.0464 0.225152 11.3934 0.202637 10.718H0C0.0900608 10.6729 0.157606 10.6729 0.225152 10.6955C0.225152 10.6955 0.225152 10.6955 0.247667 10.6955C0.292698 10.718 0.337728 10.7405 0.360243 10.808C0.607911 11.3484 0.56288 11.8888 0.56288 12.4516C0.56288 12.5417 0.56288 12.6092 0.56288 12.6993C0.56288 12.7443 0.56288 12.7894 0.56288 12.8344C0.607911 15.6488 0.607911 18.4632 0.56288 21.2776C0.56288 21.3451 0.56288 21.3902 0.56288 21.4577C0.56288 21.5253 0.56288 21.6153 0.56288 21.6829C0.56288 21.8855 0.585396 22.1107 0.56288 22.3133C0.56288 22.4034 0.56288 22.4709 0.56288 22.561C0.56288 22.651 0.56288 22.7411 0.56288 22.8086C0.56288 23.1238 0.585396 23.4616 0.56288 23.7768C0.56288 23.8218 0.56288 23.8669 0.56288 23.9119C0.56288 23.9344 0.56288 23.9569 0.56288 23.9794C0.607911 24.4297 0.607911 24.88 0.607911 25.3078C0.607911 42.4869 0.607911 59.6435 0.585396 76.8226C0.56288 77.5881 0.765517 78.3537 0.225152 78.9841Z" fill="white"/>
<path d="M6.70953 1.37305C5.98905 2.36372 4.79574 2.74647 4.00771 3.60205C3.98519 3.62457 3.96268 3.64708 3.94016 3.6696L3.91765 3.69211C3.82759 3.78217 3.73752 3.87224 3.64746 3.98481C3.64746 3.98481 3.64746 3.98481 3.62495 4.00733C3.5574 4.09739 3.46734 4.18745 3.3998 4.27751C2.02637 5.87609 1.05821 7.67731 0.675456 9.77122C0.652941 9.81625 0.652941 9.86128 0.630426 9.90631V9.92883C0.56288 10.1089 0.495335 10.3116 0.405274 10.4917C0.405274 10.4917 0.405274 10.5142 0.382759 10.5142C0.360243 10.5367 0.360243 10.5593 0.337728 10.5818C0.292698 10.6268 0.247667 10.6718 0.202637 10.7169C0.202637 10.7169 0.180122 10.7169 0.180122 10.7394H0C0.0900608 10.6943 0.157606 10.6943 0.225152 10.7169C0.247667 10.6493 0.270183 10.5818 0.292698 10.5142C0.202637 10.3116 0.157606 10.1315 0.382759 10.0189C0.765517 7.58725 1.75619 5.49333 3.5574 3.78217C3.62495 3.71463 3.69249 3.64708 3.78256 3.55702C4.57059 2.6339 5.6288 2.09353 6.59696 1.44059C6.64199 1.41808 6.68702 1.39556 6.70953 1.37305Z" fill="white"/>
<path d="M114.49 12.4948C113.815 12.5398 113.59 12.1796 113.59 11.5492C113.59 10.9187 113.905 10.6711 114.49 10.7161C114.49 11.3015 114.49 11.9094 114.49 12.4948Z" fill="#FFBC00"/>
<path d="M114.492 10.2668L114.425 10.2217L114.335 10.2443C114.177 9.95155 114.019 9.65886 113.907 9.36616C113.682 8.75825 113.569 8.12782 113.637 7.45237C113.637 7.42985 113.637 7.38482 113.637 7.3623C113.659 7.40734 113.659 7.45237 113.682 7.4974C113.929 8.35297 114.267 9.20855 114.312 10.1092C114.38 10.1542 114.425 10.1992 114.492 10.2668Z" fill="white"/>
<path d="M26.2973 43.0727C26.2973 43.0952 26.2748 43.1403 26.2748 43.1628C26.2523 43.2303 26.2523 43.2753 26.2523 43.3429C26.1848 43.7257 26.2298 44.1309 26.2298 44.5362C26.2298 57.9328 26.2298 71.3293 26.2298 84.7484C26.2298 85.1311 26.3649 85.5589 26.0947 85.9417C19.7904 85.9417 13.4862 86.0993 7.18192 85.8967C3.96224 85.7616 1.26042 83.3074 0.427355 79.9751C0.337294 79.6599 0.269748 79.3222 0.179688 79.007V78.962C0.202203 62.5033 0.202203 46.0222 0.202203 29.5636C0.202203 27.6723 0.224718 25.781 0.247233 23.8898C0.359809 23.8447 0.44987 23.8222 0.539931 23.8222C1.0803 23.7772 1.37299 24.2725 1.75575 24.5652C9.29835 30.2165 16.8635 35.8678 24.3835 41.5642C24.8564 41.9244 25.5543 42.037 25.9821 42.4873C26.0046 42.5098 26.0497 42.5549 26.0722 42.5999C26.1172 42.6674 26.1622 42.735 26.2073 42.825C26.2298 42.8926 26.2748 42.9827 26.2973 43.0727Z" fill="#0085F7"/>
<path d="M88.5096 42.6891C88.5096 42.7566 88.4871 42.8017 88.4646 42.8692C88.4421 42.9367 88.397 42.9818 88.3745 43.0493C88.3745 43.0493 88.3745 43.0718 88.352 43.0718V43.0493C88.3745 42.7116 88.4871 42.3739 88.1269 42.1262C84.5244 44.8055 80.922 47.4848 77.3196 50.1641C70.9477 54.9374 64.5985 59.6881 58.2492 64.4838C57.5062 65.0467 57.0784 64.9791 56.3804 64.4388C47.1041 57.4365 37.7828 50.4793 28.4841 43.4996C27.8536 43.0268 27.2007 42.554 26.5477 42.1037C26.4802 42.1487 26.4127 42.1712 26.3451 42.1487V43.2745C26.3451 43.252 26.3226 43.252 26.3226 43.2294C26.3001 43.2069 26.2776 43.1619 26.255 43.1394C26.21 43.0268 26.1875 42.9142 26.1875 42.7791C26.1875 42.599 26.21 42.4414 26.1875 42.2613C26.21 42.1937 26.255 42.1262 26.3226 42.0812C26.3451 42.0812 26.3451 42.0586 26.3676 42.0586C26.3901 42.0361 26.4127 42.0361 26.4352 42.0361C26.4802 42.0361 26.5027 42.0586 26.5477 42.0586H26.5703C27.4484 42.2613 28.1013 42.8917 28.7993 43.4096C37.9404 50.2317 47.0591 57.0988 56.2003 63.9434C57.3486 64.799 57.3486 64.799 58.4743 63.9659C67.8632 56.9187 77.2745 49.8714 86.6634 42.8242C87.0912 42.4864 87.4964 41.9911 88.1043 42.0586C88.1269 42.0586 88.1269 42.0586 88.1494 42.0586C88.1944 42.0586 88.2619 42.0812 88.307 42.1037C88.352 42.1487 88.3745 42.2163 88.397 42.2613C88.4196 42.3063 88.4421 42.3513 88.4421 42.3964C88.5096 42.509 88.5096 42.599 88.5096 42.6891Z" fill="white"/>
<path d="M88.5964 85.3563C88.5964 85.5364 88.619 85.7166 88.619 85.9192C88.5514 85.8967 88.5064 85.8742 88.4613 85.8291C88.3488 85.7166 88.3713 85.559 88.3488 85.4014C88.3488 85.3563 88.3488 85.3113 88.3263 85.2663C88.3488 82.7896 88.3488 80.2904 88.3488 77.8137C88.3488 66.6912 88.3488 55.5462 88.3488 44.4237C88.3488 43.9734 88.3263 43.5456 88.3263 43.0953V43.0728C88.3488 42.735 88.4613 42.3973 88.1011 42.1496C88.1011 42.1271 88.1011 42.1271 88.1011 42.1046C88.0786 41.9245 88.1686 41.8119 88.3037 41.6993C88.3037 41.6993 88.3037 41.6993 88.3263 41.6768C88.3488 41.6768 88.3713 41.6543 88.3938 41.6543C88.4163 41.6543 88.4388 41.6543 88.4613 41.6543C88.5064 41.6543 88.5514 41.6768 88.5739 41.6993V41.7669C88.5964 42.0371 88.5964 42.3072 88.619 42.5774C88.619 42.5999 88.619 42.6225 88.619 42.645C88.5964 42.8701 88.5739 43.0953 88.5739 43.3204V43.4105C88.5739 57.2799 88.5739 71.1717 88.5739 85.0411V85.3563H88.5964Z" fill="#A2E0BD"/>
<path d="M26.3408 43.2978C26.3408 53.5873 26.3182 63.8992 26.3182 74.1887C26.3182 77.7236 26.3182 81.2584 26.3182 84.7933C26.3182 85.1761 26.5209 85.6264 26.0706 85.9191C26.0706 77.3633 26.0931 68.8075 26.0931 60.2518C26.0931 54.7355 26.0706 49.1968 26.0706 43.6806C26.0706 43.3428 26.0706 42.9826 26.0706 42.6223C26.0255 42.5773 26.003 42.5098 25.9805 42.4647C25.8679 42.2171 25.8905 41.9919 26.0481 41.7443C26.0706 41.7443 26.0706 41.7443 26.0931 41.7443C26.1156 41.7443 26.1156 41.7443 26.1381 41.7443C26.4533 41.6992 26.4533 41.8793 26.3858 42.1045C26.3858 42.127 26.3633 42.1495 26.3633 42.172V43.2978H26.3408Z" fill="#A2D3FC"/>
<path d="M98.9549 0.923449C98.9999 0.923449 99.0449 0.900933 99.09 0.900933C99.0224 0.923449 98.9774 0.968479 98.9099 0.990994C95.2399 2.9273 92.2453 5.85428 88.7555 8.06077C88.6879 8.08329 88.6429 8.1058 88.5979 8.15083C88.5754 8.17335 88.5529 8.17335 88.5529 8.19586C88.5078 8.24089 88.4628 8.28592 88.4178 8.35347C88.3952 8.37598 88.3727 8.3985 88.3727 8.3985C88.3277 8.44353 88.2827 8.51108 88.2151 8.55611C88.1251 8.64617 88.035 8.71371 87.9449 8.78126C87.7198 8.96138 87.4496 9.1415 87.2245 9.34414C87.1344 9.4342 87.0443 9.50174 86.9543 9.61432C84.7028 11.5731 82.2711 13.2618 79.862 14.9955C79.4342 15.2882 78.9839 15.5583 78.5786 15.8735C72.0267 20.7819 65.4973 25.6902 58.9454 30.5985C57.4143 31.7468 57.3693 31.7468 55.8608 30.621C46.3143 23.4612 36.7679 16.3239 27.2439 9.1415C27.1764 9.09647 27.1088 9.02892 27.0413 8.98389C27.0188 8.96138 26.9963 8.96138 26.9738 8.93886C26.7711 8.78126 26.5685 8.62365 26.3433 8.46604C26.2758 8.42101 26.2082 8.35347 26.1407 8.30844C26.0731 8.26341 26.0281 8.21838 25.9831 8.17335C23.664 6.46219 21.3675 4.706 19.0484 2.99485C18.0577 2.25185 17.0671 1.53136 15.8512 1.21615C15.7837 1.19363 15.7161 1.17112 15.6486 1.17112C15.446 1.10357 15.2433 1.03602 15.1758 0.788357C15.1983 0.765842 15.2208 0.720812 15.2208 0.698296V0.675781C15.2658 0.698296 15.3109 0.720812 15.3559 0.743327C15.4685 0.810873 15.5585 0.855903 15.6486 0.900933C16.5942 1.05854 17.4498 1.53136 18.2153 2.09424C20.8496 4.05306 23.4839 6.0344 26.0957 8.03826C26.4559 8.19586 26.7486 8.42101 26.9738 8.71371C30.4636 11.303 33.9535 13.8697 37.4208 16.4815C43.7476 21.2322 50.0969 25.9604 56.4011 30.7561C57.1441 31.319 57.5944 31.2514 58.2924 30.7336C64.9569 25.6902 71.6439 20.6693 78.3535 15.6709C80.9652 13.7121 83.622 11.8433 86.2788 9.92953C86.4815 9.79444 86.6391 9.59181 86.7967 9.41168C87.2695 8.96138 87.7648 8.55611 88.3502 8.26341C88.4178 8.21838 88.4628 8.17335 88.5303 8.12832C88.5529 8.1058 88.5529 8.1058 88.5754 8.1058C91.2322 5.96686 93.9565 3.91797 96.7709 1.98166C97.4238 1.46381 98.1443 1.08106 98.9549 0.923449Z" fill="white"/>
<path d="M101.321 0.225586C101.321 0.270871 101.298 0.293513 101.275 0.316156C101.253 0.338798 101.23 0.36144 101.185 0.36144C101.139 0.384083 101.094 0.384083 101.049 0.406725C101.071 0.384083 101.117 0.36144 101.139 0.338798C101.162 0.316156 101.185 0.293513 101.23 0.270871C101.253 0.270871 101.298 0.248228 101.321 0.225586Z" fill="white"/>
<path d="M12.4526 1.50852C11.5745 1.71116 10.6964 1.28337 9.7958 1.55355C8.28728 2.00385 6.95888 2.79189 5.63048 3.60243C5.02257 3.98519 4.45969 4.18783 3.89681 3.69249C3.85178 3.64746 3.80675 3.60243 3.76172 3.5574C4.54975 2.63428 5.60797 2.09391 6.57612 1.44097C6.62115 1.41846 6.64367 1.39594 6.6887 1.37343C6.73373 1.30588 6.75624 1.26085 6.80127 1.21582C6.77876 1.23834 6.77876 1.28337 6.75624 1.30588C6.73373 1.3284 6.73373 1.3284 6.71121 1.35091C7.22906 1.14828 7.7244 0.945639 8.24225 0.743002C8.19722 0.720487 8.12967 0.720487 8.08464 0.697972C8.19722 0.675456 8.33231 0.675456 8.44488 0.652941C8.51243 0.630426 8.57997 0.630426 8.67004 0.607911C8.78261 0.51785 8.89519 0.427789 9.00776 0.360243C8.96273 0.427789 8.89519 0.495335 8.82764 0.585395C9.36801 0.540365 9.88586 0.472819 10.3812 0.405274C10.3362 0.360243 10.2911 0.315213 10.2461 0.270183C10.3136 0.292698 10.4037 0.337728 10.4713 0.382759C10.6964 0.315213 10.9216 0.247667 11.1467 0.157606C11.2593 0.0900608 11.3493 0.0450304 11.4394 0C11.3944 0.0450304 11.3493 0.112576 11.2818 0.157606H12.5877C12.5652 0.112576 12.5427 0.0900608 12.5201 0.0450304C12.5877 0.0675456 12.6327 0.112576 12.6777 0.157606C12.9029 0.225152 13.128 0.292698 13.3532 0.382759L13.3757 0.405274C13.3757 0.405274 13.3757 0.427789 13.3982 0.427789C13.4207 0.450304 13.4433 0.495335 13.4658 0.51785V0.540365C13.6234 1.37343 12.993 1.37343 12.4526 1.50852Z" fill="#E51C19"/>
<path d="M110.553 3.24176C110.576 3.28679 110.621 3.3093 110.643 3.35433C110.576 3.3093 110.508 3.26427 110.44 3.24176C109.562 2.72391 108.684 2.22857 107.986 1.48557C107.986 1.46305 108.009 1.41802 108.009 1.39551C108.842 2.00342 109.878 2.38618 110.553 3.24176Z" fill="white"/>
<path d="M113.051 6.32672C113.073 6.37175 113.096 6.41678 113.118 6.46181C113.051 6.39426 112.983 6.34923 112.938 6.28169C112.398 5.74132 111.993 5.1109 111.61 4.45795C111.542 4.32286 111.475 4.18777 111.385 4.0752C111.452 4.12023 111.497 4.16526 111.565 4.2328C112.218 4.79568 112.668 5.53868 113.051 6.32672Z" fill="white"/>
<path d="M113.589 7.18298C113.521 7.22826 113.476 7.20562 113.431 7.16034L113.408 7.1377H113.431C113.499 7.1377 113.544 7.16034 113.589 7.18298Z" fill="white"/>
<path d="M107.984 1.37375C107.421 1.59891 106.994 1.37375 106.611 1.03603C106.543 0.990995 106.498 0.945964 106.453 0.900934C106.408 0.833388 106.341 0.810873 106.251 0.833388C105.598 0.945964 104.99 0.810873 104.449 0.428114C104.404 0.428114 104.382 0.405599 104.359 0.383084C104.359 0.360569 104.359 0.360569 104.359 0.338053C104.382 0.293023 104.404 0.270508 104.427 0.270508C104.427 0.293023 104.427 0.315538 104.449 0.338053C104.449 0.360569 104.449 0.383084 104.472 0.383084C104.494 0.383084 104.517 0.383084 104.539 0.405599L104.562 0.428114C105.147 0.428114 105.71 0.563206 106.228 0.810873C106.251 0.810873 106.273 0.810873 106.318 0.788358C106.431 0.810873 106.498 0.855903 106.588 0.923449C107.039 1.08106 107.512 1.21615 107.984 1.37375Z" fill="white"/>
<path d="M104.471 0.404894C104.471 0.427409 104.471 0.427409 104.471 0.404894C103.188 1.39556 101.972 1.39556 101.049 0.404894C101.071 0.382379 101.116 0.359863 101.139 0.337348C101.161 0.314833 101.184 0.292318 101.229 0.269803C101.251 0.247287 101.296 0.224772 101.319 0.202257C101.544 0.179742 101.769 0.179742 101.994 0.157227H102.062C102.535 0.157227 102.985 0.157227 103.458 0.157227H103.571C103.863 0.179742 104.156 0.202257 104.449 0.224772C104.449 0.247287 104.449 0.269803 104.471 0.292318C104.471 0.314833 104.471 0.337348 104.494 0.337348C104.471 0.382379 104.471 0.404894 104.471 0.404894Z" fill="#FFBC00"/>
<path d="M114.331 10.2448C114.016 10.2673 113.678 10.1547 113.656 9.83952C113.611 9.16406 113.318 8.60118 113.025 8.01579C112.823 7.588 113.025 7.31782 113.408 7.1377H113.431C113.476 7.16021 113.521 7.16021 113.566 7.18273C113.543 7.25027 113.566 7.31782 113.611 7.36285C113.633 7.40788 113.633 7.45291 113.656 7.49794C113.903 8.35352 114.241 9.20909 114.286 10.1097C114.309 10.1547 114.331 10.1998 114.331 10.2448Z" fill="#FFBC00"/>
<path d="M15.1743 0.652941C14.5664 1.08073 14.026 0.855578 13.5081 0.56288C13.4631 0.540365 13.4181 0.51785 13.373 0.495334V0.472819L13.3956 0.405273L13.4181 0.427789C13.4181 0.427789 13.4181 0.450304 13.4406 0.450304C14.026 0.292697 14.5664 0.720486 15.1517 0.652941C15.1517 0.652941 15.1517 0.652941 15.1743 0.652941Z" fill="white"/>
<path d="M8.69141 0.63048C8.80398 0.540419 8.91656 0.450358 9.02913 0.382812C8.9841 0.450358 8.91656 0.517904 8.84901 0.607965C8.80398 0.607965 8.73644 0.63048 8.69141 0.63048Z" fill="white"/>
<path d="M10.4725 0.406181C10.4499 0.406181 10.4046 0.406181 10.3819 0.428823C10.3367 0.383538 10.2914 0.338254 10.2461 0.292969C10.3367 0.315611 10.4046 0.360896 10.4725 0.406181Z" fill="white"/>
<path d="M6.71094 1.37432C6.75622 1.30639 6.77886 1.26111 6.82415 1.21582C6.80151 1.23846 6.80151 1.28375 6.77887 1.30639C6.75622 1.32903 6.75622 1.32903 6.73358 1.35167C6.73358 1.37432 6.73358 1.37432 6.71094 1.37432Z" fill="white"/>
<path d="M8.46571 0.675781C8.39817 0.698296 8.33062 0.720812 8.26308 0.765842C8.21804 0.743327 8.1505 0.743327 8.10547 0.720812C8.24056 0.698296 8.35314 0.698296 8.46571 0.675781Z" fill="white"/>
<path d="M11.1465 0.179981C11.2597 0.112054 11.3503 0.0667692 11.4408 0.0214844C11.3956 0.0667692 11.3503 0.134696 11.2823 0.179981H11.1465Z" fill="white"/>
<path d="M12.7222 0.181571H12.6089C12.5863 0.136287 12.5637 0.113644 12.541 0.0683594C12.6089 0.113644 12.6542 0.158929 12.7222 0.181571Z" fill="white"/>
<path d="M98.5467 1.91455C95.327 3.40056 92.8053 5.87723 89.9234 7.85857C89.4956 8.17378 89.0903 8.28636 88.595 8.26384C88.5725 8.24133 88.55 8.24133 88.5274 8.21881C88.5274 8.21881 88.5049 8.21881 88.5049 8.1963C88.4824 8.17378 88.4824 8.15127 88.4824 8.12875C88.4824 8.10624 88.5049 8.10623 88.5049 8.08372C88.5275 8.0612 88.5274 8.0612 88.55 8.0612C91.2068 5.92226 93.9311 3.87338 96.7455 1.93707C97.3984 1.48676 98.0964 1.08149 98.907 0.923882C98.952 0.923882 98.997 0.901367 99.0421 0.901367C99.1321 1.35167 98.952 1.73443 98.5467 1.91455Z" fill="#FFBC00"/>
<path d="M88.6221 8.26302C88.6221 19.4081 88.5996 30.5531 88.5996 41.6981C88.5996 41.6981 88.5771 41.6981 88.5771 41.7206C88.5321 41.7431 88.4645 41.7657 88.397 41.7882C88.3745 41.7657 88.352 41.7431 88.3294 41.7206C88.1268 41.4955 88.1043 41.2253 88.0818 40.9551C88.0818 40.8876 88.0818 40.8425 88.0593 40.775C87.9692 33.2999 88.0368 25.8249 88.0142 18.3724C88.0142 15.2878 87.9467 12.2032 88.0593 9.1186C88.0593 9.07357 88.0818 9.02854 88.0818 8.98351C88.0818 8.93848 88.1043 8.91596 88.1043 8.87093C88.1268 8.78087 88.1718 8.69081 88.1944 8.62326C88.2394 8.51069 88.3069 8.39811 88.352 8.28554C88.4195 8.24051 88.4645 8.19548 88.5321 8.15045C88.5546 8.15045 88.5546 8.12793 88.5771 8.12793C88.5771 8.15044 88.5771 8.19548 88.5771 8.24051V8.26302C88.5996 8.21799 88.6221 8.24051 88.6221 8.26302Z" fill="#FF6E1F"/>
<path d="M110.641 3.35553C110.1 3.55816 109.717 3.60319 109.222 3.0178C108.794 2.49995 107.984 2.2748 107.308 2.02713C106.723 1.82449 106.43 1.50928 106.475 0.901367C106.52 0.923882 106.543 0.923882 106.588 0.946398C107.061 1.104 107.533 1.2391 108.006 1.3967C108.006 1.3967 108.029 1.3967 108.029 1.41922C108.862 2.04964 109.898 2.4324 110.573 3.26546C110.573 3.26546 110.618 3.31049 110.641 3.35553Z" fill="#FFBC00"/>
<path d="M113.118 6.46186C111.858 6.34929 111.385 5.69634 111.385 4.05273C111.452 4.09776 111.497 4.14279 111.565 4.21034C112.24 4.79574 112.691 5.53874 113.073 6.32677C113.073 6.3718 113.096 6.41683 113.118 6.46186Z" fill="#FFBC00"/>
<path d="M106.274 0.810493C105.531 1.35086 104.923 1.21577 104.473 0.427734H104.495C104.518 0.427734 104.54 0.427734 104.585 0.427734C105.171 0.427734 105.734 0.562826 106.251 0.810493C106.229 0.810493 106.251 0.810493 106.274 0.810493Z" fill="#FFBC00"/>
<path d="M25.3273 39.7402C24.6744 40.078 24.179 39.38 23.7062 39.0198C15.961 33.2559 8.28329 27.4244 0.53806 21.7056C0.515544 21.683 0.493029 21.683 0.493029 21.6605C0.402968 21.593 0.335423 21.5029 0.245362 21.4354V12.722C0.357938 12.6319 0.447999 12.5419 0.53806 12.4518C1.28106 11.7088 1.21352 11.5287 0.357938 10.583C0.335423 10.5605 0.290392 10.5155 0.267877 10.493C0.200331 10.3129 0.155301 10.1327 0.380453 10.0202C0.493029 9.95262 0.58309 9.86256 0.673151 9.7725C0.920818 9.50231 1.05591 9.16459 1.14597 8.84937C1.57376 7.58852 2.15915 6.41773 3.10479 5.44957C3.44252 5.11185 3.35246 4.68406 3.39749 4.27878C3.42001 4.09866 3.46504 3.94106 3.5551 3.78345C3.62264 3.7159 3.69019 3.64836 3.78025 3.5583C3.8478 3.58081 3.93786 3.58081 4.0054 3.60333C4.54577 3.7159 4.99607 3.67087 5.64901 3.24308C7.1125 2.29744 8.66605 1.28426 10.4448 1.08162C11.0076 1.01408 11.7732 1.17168 12.4486 1.21671C12.8764 1.23923 13.4618 1.1942 13.3942 0.451197C13.4168 0.451197 13.4393 0.428682 13.4618 0.428682C14.0472 0.271075 14.5876 0.698864 15.1729 0.631319H15.1955C15.1955 0.631319 15.1955 0.631319 15.218 0.631319C15.263 0.653834 15.308 0.676349 15.3531 0.698864C15.4656 0.76641 15.5557 0.81144 15.6458 0.856471C15.7133 0.969047 15.7809 1.08162 15.8484 1.17168C16.2987 1.80211 16.9967 2.13984 17.6496 2.54511C19.5634 3.80596 21.3196 5.31448 23.1658 6.68791C26.1379 8.91692 25.7101 8.17392 25.7326 11.7989C25.7551 20.5348 25.7326 29.2707 25.7326 38.0066C25.7326 38.6145 25.9802 39.425 25.3273 39.7402Z" fill="#E51C19"/>
<path d="M26.4558 39.8283C26.4558 40.3011 26.4783 40.7965 26.2981 41.2468C26.2081 41.4269 26.0955 41.517 26.0054 41.562C26.0054 41.562 25.9829 41.562 25.9829 41.5845C25.7353 41.6971 25.4426 41.517 25.1949 41.3368C24.4519 40.864 23.7539 40.2786 23.0334 39.7608C15.9186 34.4247 8.78131 29.0661 1.66651 23.7299C1.28375 23.4372 0.855958 23.1896 0.540745 22.8293C0.428169 22.6942 0.315593 22.5366 0.248047 22.3565V21.4109C0.360623 21.4109 0.450684 21.4334 0.540745 21.4559C1.57644 21.6811 2.22939 22.5366 3.01742 23.122C9.47928 27.9178 15.9186 32.7811 22.358 37.6218C23.101 38.1847 23.8215 38.7251 24.5645 39.288C24.7671 39.4456 24.9697 39.6707 25.2399 39.5807C25.5551 39.4681 25.4201 39.1304 25.4426 38.8827C25.4426 37.3291 25.4426 35.7531 25.4426 34.1995C25.4426 26.094 25.4201 17.9886 25.4651 9.88309C25.4651 9.09506 25.2624 8.53218 24.632 8.08187C22.313 6.37072 19.9939 4.68208 17.7199 2.94841C17.2695 2.61068 16.7292 2.47559 16.2564 2.18289C15.8286 1.91271 15.6259 1.57498 15.6259 1.12467C15.6259 1.03461 15.6259 0.944553 15.6259 0.854492C16.5941 1.05713 17.4497 1.52995 18.2152 2.09283C20.8495 4.05165 23.4837 6.03299 26.0955 8.03685C26.1856 8.17194 26.2531 8.30703 26.2981 8.46463C26.4332 8.86991 26.4558 9.32021 26.4558 9.748C26.4558 19.7673 26.4558 29.8091 26.4558 39.8283Z" fill="#E51C19"/>
<path d="M26.1396 41.743C26.1396 41.7655 26.1396 41.788 26.1396 41.8105C26.1171 42.0807 26.0946 42.3284 26.0721 42.5985C26.0721 42.6211 26.0721 42.6211 26.0721 42.6436C25.239 42.8012 24.7887 42.1482 24.2483 41.743C16.368 35.844 8.51021 29.9225 0.652398 24.0235C0.607368 24.001 0.562338 23.9785 0.517307 23.9559C0.427246 23.9334 0.31467 23.9109 0.224609 23.8884V22.3799C0.31467 22.4474 0.404731 22.515 0.517307 22.605C8.48769 28.5716 16.4806 34.5381 24.451 40.5271C24.9238 40.8874 25.4191 41.2026 25.892 41.5403C25.9145 41.5628 25.937 41.5854 25.982 41.6079C26.0721 41.6079 26.1171 41.6529 26.1396 41.743Z" fill="#0085F7"/>
<path d="M1.32889 11.7521C1.26134 12.3149 1.01367 12.6302 0.518338 12.6977C0.428277 12.7202 0.338216 12.7202 0.248155 12.7202C0.22564 12.0448 0.22564 11.3918 0.203125 10.7164V10.6938C0.22564 10.6263 0.248155 10.5588 0.270671 10.4912C0.315701 10.4912 0.360731 10.5137 0.405762 10.5137C1.01367 10.6713 1.41895 10.9865 1.32889 11.7521Z" fill="#E51C19"/>
<path d="M2.63238 6.48405C2.20459 6.93436 2.0695 7.38466 1.84435 7.88C1.52914 8.623 1.4841 9.56864 0.628527 9.95139C0.560981 9.97391 0.47092 10.0189 0.380859 10.0415C0.763618 7.5873 1.75429 5.49338 3.5555 3.78223C3.57802 3.84977 3.62305 3.91732 3.64556 3.98486C4.00581 5.06559 3.28532 5.83111 2.63238 6.48405Z" fill="#E51C19"/>
<path d="M88.3953 41.7434C88.3278 41.856 88.2377 41.9686 88.1702 42.0811C88.1702 42.1037 88.1476 42.1036 88.1476 42.1262C84.5452 44.8055 80.9428 47.4848 77.3403 50.1641C70.9685 54.9373 64.6192 59.688 58.27 64.4838C57.527 65.0467 57.0992 64.9791 56.4012 64.4387C47.1249 57.4365 37.8036 50.4793 28.5048 43.4996C27.8744 43.0268 27.2215 42.554 26.5685 42.1036V42.0811C26.546 41.7659 26.7036 41.5633 26.9513 41.4057C26.9738 41.4057 26.9738 41.3832 26.9963 41.3832C27.0414 41.3606 27.0639 41.3606 27.1089 41.3381C27.1314 41.3381 27.1314 41.3381 27.1539 41.3381C27.1764 41.3381 27.199 41.3156 27.2215 41.3156C27.244 41.3156 27.244 41.3156 27.2665 41.3156C28.0095 41.3381 28.4598 41.8785 28.9777 42.2613C37.9612 48.9933 46.9448 55.7254 55.9284 62.4799C57.2793 63.4931 57.3018 63.4931 58.6077 62.5249C67.9515 55.5227 77.2953 48.5205 86.6391 41.5183C87.0444 41.203 87.4046 40.5951 88.0351 40.7302C88.1251 40.7527 88.2152 40.7753 88.3053 40.8203C88.3278 40.8203 88.3278 40.8428 88.3503 40.8428C88.3503 41.068 88.3728 41.2706 88.3728 41.4732C88.3728 41.5183 88.3728 41.5858 88.3728 41.6308C88.3953 41.6759 88.3953 41.7209 88.3953 41.7434Z" fill="#FF4131"/>
<path d="M27.2219 41.1354C27.1994 41.203 27.1769 41.248 27.1318 41.3156C27.1318 41.3381 27.1093 41.3381 27.1093 41.3606C27.0868 41.4281 27.0418 41.4732 26.9967 41.5182C26.8617 41.7208 26.7266 41.901 26.569 42.1036L26.5464 42.1261C26.4789 42.1711 26.4114 42.1937 26.3438 42.1711C26.3438 42.1486 26.3213 42.1261 26.3213 42.1261C26.2988 41.991 26.2988 41.8559 26.1187 41.8109C26.0961 41.7884 26.0961 41.7659 26.0736 41.7434C26.0286 41.6983 26.0061 41.6308 25.961 41.5858C25.9385 41.5632 25.916 41.5407 25.916 41.5182C26.2537 41.1355 26.0961 40.6626 26.0961 40.2348C26.0961 29.5851 26.0961 18.958 26.0961 8.30827V8.03809C26.4564 8.19569 26.7491 8.42084 26.9742 8.71354C27.0643 8.84863 27.1318 8.98372 27.1769 9.14133C27.2444 9.32145 27.2894 9.52409 27.2894 9.74924C27.2894 19.7685 27.2894 29.7878 27.2894 39.8071C27.312 40.2348 27.3795 40.7077 27.2219 41.1354Z" fill="#FF4131"/>
<path d="M88.3746 8.91547V40.842C88.3521 40.842 88.3521 40.842 88.3296 40.842C88.2395 40.8646 88.1495 40.8646 88.0819 40.9096C87.1588 41.1573 86.5959 41.9453 85.8529 42.4631C82.8809 44.5796 79.999 46.7861 77.0945 48.97C73.9874 51.3116 70.9253 53.6982 67.7957 56.0398C64.9813 58.1562 62.1219 60.2502 59.2625 62.3216C58.9923 62.5242 58.8347 62.7944 58.5195 62.9745C57.146 63.8076 57.1685 63.8076 55.8627 62.8394C49.9862 58.4264 44.0872 53.9909 38.2107 49.5779C34.8334 47.0337 31.4562 44.4895 28.0789 41.9453C27.8087 41.7427 27.5385 41.54 27.2008 41.5175C27.1783 41.45 27.1558 41.4049 27.1332 41.3374C27.1332 41.3374 27.1332 41.3149 27.1107 41.3149C27.0207 40.9996 27.0882 40.6394 27.0882 40.3242C27.0882 30.485 27.0882 20.6459 27.0657 10.8068C27.0657 10.4015 27.1783 9.9962 26.9531 9.61345V8.73535C30.443 11.3246 33.9328 13.8913 37.4002 16.5031C43.727 21.2538 50.0762 25.982 56.3805 30.7777C57.1235 31.3406 57.5738 31.2731 58.2718 30.7552C64.9363 25.7118 71.6233 20.6909 78.3328 15.6926C80.9446 13.7337 83.6014 11.865 86.2582 9.95117C86.4608 9.81608 86.6184 9.61344 86.776 9.43332C87.2038 9.41081 87.474 8.89296 87.9018 8.84793C87.9694 8.84793 88.0144 8.84793 88.0819 8.87044C88.1495 8.89296 88.217 8.91547 88.3071 8.9605C88.3521 8.91547 88.3521 8.91547 88.3746 8.91547Z" fill="#FF4131"/>
<path d="M88.3748 8.91477C88.3523 8.91477 88.3523 8.91477 88.3523 8.91477C88.2622 8.89225 88.1947 8.89225 88.1046 8.91477C87.7894 8.98231 87.5192 9.22998 87.2265 9.34256C87.1139 9.38759 86.9788 9.4101 86.8438 9.36507C87.3166 8.91477 87.8119 8.50949 88.3973 8.2168V8.53201C88.3748 8.6671 88.3748 8.80219 88.3748 8.91477Z" fill="#FF4131"/>
<path d="M26.9941 9.5918C27.3769 9.95204 27.2193 10.4249 27.2193 10.8526C27.2193 21.0746 27.2193 31.2965 27.2193 41.4959C27.1517 41.4959 27.0617 41.4959 26.9941 41.4959C26.9941 30.8687 26.9941 20.2415 26.9941 9.5918Z" fill="#FF4131"/>
</svg>
