<svg width="750" height="245" viewBox="0 0 750 245" fill="none" xmlns="http://www.w3.org/2000/svg">
<path d="M257 110.5C119.755 309.909 12.3862 121.19 0 47.4678V0H750V244.5C750 192.054 427 -136.5 257 110.5Z" fill="#5C16FF"/>
<path d="M136.5 72C109.163 72 87 94.1629 87 121.5C87 148.837 109.163 171 136.5 171C163.837 171 186 148.837 186 121.5C186 94.1629 163.865 72 136.5 72ZM164.667 132.955C163.256 134.366 161.873 134.366 160.434 132.927L149.698 122.192C149.504 121.998 149.311 121.832 149.145 121.666V142.141H143.417V119.923C143.417 119.369 143.196 119.12 142.726 119.12H130.413C129.915 119.12 129.721 119.397 129.721 119.923V142.141H123.994V121.666C123.8 121.832 123.606 121.998 123.44 122.192L112.705 132.927C111.266 134.394 109.882 134.394 108.471 132.955L98.3443 122.939C96.9332 121.528 96.9332 120.144 98.372 118.705L116.191 100.887L120.701 105.397L105.76 120.338C105.428 120.67 105.372 120.947 105.732 121.279L110.436 125.982C110.74 126.287 111.044 126.287 111.404 125.955L119.041 118.318C121.503 115.856 123.717 114.472 125.764 113.891C126.345 113.642 127.037 113.559 127.923 113.559H145.105C145.991 113.559 146.682 113.67 147.263 113.891C149.311 114.472 151.552 115.856 153.987 118.318L161.624 125.955C161.956 126.287 162.288 126.287 162.592 125.982L167.296 121.279C167.628 120.947 167.6 120.67 167.268 120.338L152.327 105.397L156.837 100.887L174.656 118.705C176.094 120.172 176.094 121.528 174.683 122.939L164.667 132.955Z" fill="white"/>
</svg>
