<svg width="750" height="245" viewBox="0 0 750 245" fill="none" xmlns="http://www.w3.org/2000/svg">
<path d="M257 110.5C119.755 309.909 12.3862 121.19 0 47.4678V0H750V244.5C750 192.054 427 -136.5 257 110.5Z" fill="#F62D51"/>
<path d="M186.146 107.75C184.048 96.5037 178.368 87.2249 169.494 79.883C164.529 75.776 158.931 72.7844 152.718 70.9895C142.984 68.1907 133.24 68.3225 123.619 71.527C115.42 74.2548 108.379 78.8283 102.759 85.3691C92.7288 97.0208 89.1874 110.498 91.8588 125.496C93.3531 133.943 97.1811 141.397 102.913 147.836C109.852 155.624 118.512 160.614 128.716 162.895C134.745 164.244 140.876 164.315 146.966 163.341C152.421 162.469 157.61 160.735 162.37 157.876C162.554 157.531 162.974 157.592 163.23 157.369C166.157 155.908 168.695 153.89 171.121 151.751C175.993 147.471 179.708 142.309 182.492 136.489C186.883 127.321 187.989 117.657 186.146 107.75ZM121.377 107.547C121.377 110.559 121.377 113.56 121.377 116.572C121.377 123.671 121.377 130.769 121.377 137.868C121.377 139.389 121.367 139.399 119.801 139.399C118.634 139.399 117.468 139.379 116.29 139.409C115.533 139.43 115.216 139.095 115.226 138.385C115.236 137.766 115.226 137.148 115.226 136.539C115.226 122.809 115.226 109.078 115.226 95.3375C115.226 93.6643 115.277 93.6136 117.017 93.6136C118.03 93.6136 119.044 93.6643 120.057 93.6034C121.081 93.5426 121.418 93.9482 121.408 94.942C121.347 99.1301 121.377 103.339 121.377 107.547ZM162.114 137.077C161.223 137.878 160.374 138.73 159.565 139.612C158.921 140.312 158.439 140.291 157.754 139.602C154.171 136.012 150.548 132.463 146.945 128.893C144.049 126.034 141.152 123.184 138.286 120.304C137.713 119.726 137.13 119.533 136.331 119.543C133.568 119.584 130.794 119.533 128.03 119.574C127.027 119.594 126.608 119.219 126.649 118.215C126.69 117.018 126.669 115.822 126.659 114.625C126.649 113.753 127.038 113.378 127.938 113.398C129.422 113.439 130.906 113.408 132.38 113.408C133.742 113.408 135.113 113.347 136.474 113.429C137.273 113.479 137.836 113.145 138.317 112.658C143.649 107.172 149.125 101.817 154.632 96.4834C155.655 95.4896 156.648 94.4451 157.631 93.4107C158.296 92.711 158.9 92.6603 159.586 93.4107C160.343 94.2321 161.142 95.0434 161.991 95.7735C162.841 96.5138 162.789 97.0817 161.991 97.8625C156.904 102.852 151.848 107.871 146.781 112.891C145.901 113.763 145.072 114.686 144.13 115.487C143.281 116.217 143.291 116.714 144.1 117.505C149.453 122.738 154.765 128.021 160.087 133.284C160.753 133.943 161.387 134.613 162.083 135.241C162.759 135.87 162.851 136.408 162.114 137.077Z" fill="white"/>
</svg>
