<svg width="938" height="937" viewBox="0 0 938 937" fill="none" xmlns="http://www.w3.org/2000/svg">
<path d="M929.59 382.119C909.09 271.219 853.59 179.719 766.89 107.319C718.39 66.819 663.69 37.319 602.99 19.619C507.89 -7.98099 412.69 -6.68099 318.69 24.919C238.59 51.819 169.79 96.919 114.89 161.419C16.8903 276.319 -17.7097 409.219 8.39029 557.119C22.9903 640.419 60.3903 713.919 116.39 777.419C184.19 854.219 268.79 903.419 368.49 925.919C427.39 939.219 487.29 939.919 546.79 930.319C600.09 921.719 650.79 904.619 697.29 876.419C699.09 873.019 703.19 873.619 705.69 871.419C734.29 857.019 759.09 837.119 782.79 816.019C830.39 773.819 866.69 722.919 893.89 665.519C936.79 575.119 947.59 479.819 929.59 382.119ZM296.79 380.119C296.79 409.819 296.79 439.419 296.79 469.119C296.79 539.119 296.79 609.119 296.79 679.119C296.79 694.119 296.69 694.219 281.39 694.219C269.99 694.219 258.59 694.019 247.09 694.319C239.69 694.519 236.59 691.219 236.69 684.219C236.79 678.119 236.69 672.019 236.69 666.019C236.69 530.619 236.69 395.219 236.69 259.719C236.69 243.219 237.19 242.719 254.19 242.719C264.09 242.719 273.99 243.219 283.89 242.619C293.89 242.019 297.19 246.019 297.09 255.819C296.49 297.119 296.79 338.619 296.79 380.119ZM694.79 671.319C686.09 679.219 677.79 687.619 669.89 696.319C663.59 703.219 658.89 703.019 652.19 696.219C617.19 660.819 581.79 625.819 546.59 590.619C518.29 562.419 489.99 534.319 461.99 505.919C456.39 500.219 450.69 498.319 442.89 498.419C415.89 498.819 388.79 498.319 361.79 498.719C351.99 498.919 347.89 495.219 348.29 485.319C348.69 473.519 348.49 461.719 348.39 449.919C348.29 441.319 352.09 437.619 360.89 437.819C375.39 438.219 389.89 437.919 404.29 437.919C417.59 437.919 430.99 437.319 444.29 438.119C452.09 438.619 457.59 435.319 462.29 430.519C514.39 376.419 567.89 323.619 621.69 271.019C631.69 261.219 641.39 250.919 650.99 240.719C657.49 233.819 663.39 233.319 670.09 240.719C677.49 248.819 685.29 256.819 693.59 264.019C701.89 271.319 701.39 276.919 693.59 284.619C643.89 333.819 594.49 383.319 544.99 432.819C536.39 441.419 528.29 450.519 519.09 458.419C510.79 465.619 510.89 470.519 518.79 478.319C571.09 529.919 622.99 582.019 674.99 633.919C681.49 640.419 687.69 647.019 694.49 653.219C701.09 659.419 701.99 664.719 694.79 671.319Z" fill="#F62D51"/>
</svg>
