<svg width="358" height="358" viewBox="0 0 358 358" fill="none" xmlns="http://www.w3.org/2000/svg">
<path d="M178.9 0C80.1 0 0 80.1 0 178.9C0 277.7 80.1 357.8 178.9 357.8C277.7 357.8 357.8 277.7 357.8 178.9C357.8 80.1 277.8 0 178.9 0ZM280.7 220.3C275.6 225.4 270.6 225.4 265.4 220.2L226.6 181.4C225.9 180.7 225.2 180.1 224.6 179.5V253.5H203.9V173.2C203.9 171.2 203.1 170.3 201.4 170.3H156.9C155.1 170.3 154.4 171.3 154.4 173.2V253.5H133.7V179.5C133 180.1 132.3 180.7 131.7 181.4L92.9 220.2C87.7 225.5 82.7 225.5 77.6 220.3L41 184.1C35.9 179 35.9 174 41.1 168.8L105.5 104.4L121.8 120.7L67.8 174.7C66.6 175.9 66.4 176.9 67.7 178.1L84.7 195.1C85.8 196.2 86.9 196.2 88.2 195L115.8 167.4C124.7 158.5 132.7 153.5 140.1 151.4C142.2 150.5 144.7 150.2 147.9 150.2H210C213.2 150.2 215.7 150.6 217.8 151.4C225.2 153.5 233.3 158.5 242.1 167.4L269.7 195C270.9 196.2 272.1 196.2 273.2 195.1L290.2 178.1C291.4 176.9 291.3 175.9 290.1 174.7L236.1 120.7L252.4 104.4L316.8 168.8C322 174.1 322 179 316.9 184.1L280.7 220.3Z" fill="#5C16FF"/>
</svg>
