<?xml version="1.0" encoding="utf-8"?>
<!-- Generator: Adobe Illustrator 27.4.1, SVG Export Plug-In . SVG Version: 6.00 Build 0)  -->
<svg version="1.1" id="Layer_1" xmlns="http://www.w3.org/2000/svg" xmlns:xlink="http://www.w3.org/1999/xlink" x="0px" y="0px"
	 viewBox="0 0 128 128" style="enable-background:new 0 0 128 128;" xml:space="preserve">
<style type="text/css">
	.st0{fill:#5C16FF;}
	.st1{fill:#FFFFFF;}
</style>
<circle class="st0" cx="64" cy="64" r="64"/>
<path class="st1" d="M113.4,65.9l-13,13c-1.8,1.8-3.6,1.8-5.5,0L81.1,64.9c-0.3-0.3-0.5-0.5-0.7-0.7v26.5h-7.4V62c0-0.7-0.3-1-0.9-1
	H56.1c-0.6,0-0.9,0.4-0.9,1v28.7h-7.4V64.2c-0.3,0.2-0.5,0.4-0.7,0.7L33.2,78.8c-1.9,1.9-3.6,1.9-5.5,0l-13.1-13
	c-1.8-1.8-1.8-3.6,0-5.5l23-23l5.8,5.8L24.3,62.5c-0.4,0.4-0.5,0.8,0,1.2l6.1,6.1c0.4,0.4,0.8,0.4,1.3,0l9.9-9.9
	c3.2-3.2,6-5,8.7-5.7c0.8-0.3,1.6-0.4,2.8-0.4h22.2c1.1,0,2,0.1,2.8,0.4c2.6,0.8,5.5,2.5,8.7,5.7l9.9,9.9c0.4,0.4,0.9,0.4,1.3,0
	l6.1-6.1c0.4-0.4,0.4-0.8,0-1.2L84.5,43.2l5.8-5.8l23,23C115.2,62.3,115.2,64,113.4,65.9z"/>
</svg>
