<svg width="387" height="155" viewBox="0 0 387 155" fill="none" xmlns="http://www.w3.org/2000/svg">
<path d="M153.788 63.2166C150.397 44.8696 141.215 29.7322 126.872 17.7545C118.848 11.0543 109.799 6.17394 99.7568 3.24571C84.0238 -1.32035 68.2742 -1.10528 52.7231 4.12252C39.4716 8.57277 28.0896 16.034 19.0071 26.7047C2.79428 45.7133 -2.92984 67.6999 1.38806 92.168C3.80344 105.949 9.99078 118.109 19.2552 128.614C30.4719 141.319 44.4678 149.459 60.9619 153.181C70.7061 155.381 80.6158 155.497 90.4593 153.909C99.2771 152.486 107.665 149.657 115.358 144.992C115.655 144.43 116.334 144.529 116.747 144.165C121.479 141.783 125.582 138.49 129.502 135C137.377 128.018 143.383 119.597 147.882 110.101C154.98 95.1459 156.766 79.3798 153.788 63.2166ZM49.1001 62.8857C49.1001 67.7992 49.1001 72.6961 49.1001 77.6096C49.1001 89.1902 49.1001 100.771 49.1001 112.351C49.1001 114.833 49.0835 114.849 46.5523 114.849C44.6663 114.849 42.7804 114.816 40.8778 114.866C39.6536 114.899 39.1408 114.353 39.1573 113.195C39.1738 112.186 39.1573 111.177 39.1573 110.184C39.1573 87.7839 39.1573 65.3838 39.1573 42.9671C39.1573 40.2374 39.24 40.1547 42.0524 40.1547C43.6903 40.1547 45.3281 40.2374 46.9659 40.1381C48.6203 40.0389 49.1662 40.7006 49.1497 42.3219C49.0504 49.1544 49.1001 56.0201 49.1001 62.8857ZM114.944 111.061C113.505 112.368 112.131 113.758 110.825 115.197C109.782 116.338 109.005 116.305 107.896 115.18C102.106 109.324 96.2496 103.534 90.4262 97.7102C85.7443 93.0448 81.0625 88.3961 76.4302 83.6977C75.5038 82.7547 74.5608 82.4403 73.2704 82.4569C68.8036 82.523 64.3203 82.4403 59.8535 82.5065C58.2322 82.5396 57.5539 81.9275 57.6201 80.2896C57.6862 78.3375 57.6531 76.3853 57.6366 74.4332C57.6201 73.0104 58.2487 72.3983 59.7046 72.4314C62.1034 72.4976 64.5022 72.4479 66.8845 72.4479C69.0848 72.4479 71.3017 72.3487 73.502 72.481C74.7924 72.5638 75.7023 72.0178 76.4799 71.2237C85.0991 62.2736 93.95 53.5385 102.85 44.8365C104.505 43.2153 106.11 41.5113 107.698 39.8238C108.773 38.6823 109.749 38.5996 110.858 39.8238C112.082 41.1638 113.372 42.4873 114.745 43.6785C116.119 44.8862 116.036 45.8126 114.745 47.0865C106.523 55.226 98.3506 63.4151 90.1615 71.6042C88.7387 73.027 87.3987 74.5324 85.8767 75.8394C84.5035 77.0305 84.5201 77.8412 85.827 79.1316C94.4794 87.6681 103.066 96.2874 111.668 104.874C112.744 105.949 113.769 107.041 114.894 108.067C115.986 109.092 116.135 109.969 114.944 111.061Z" fill="white"/>
<path d="M285.278 48.1791C289.1 39.6426 292.822 31.3873 296.462 23.0989C297.024 21.8251 297.719 21.3784 299.125 21.3949C305.925 21.4776 312.741 21.4942 319.54 21.3949C321.426 21.3618 321.261 21.8912 320.549 23.2147C312.476 38.4515 304.469 53.7047 296.395 68.9415C295.75 70.1492 295.436 71.3238 295.436 72.6969C295.486 79.8769 295.436 87.0568 295.486 94.2368C295.486 95.4445 295.32 96.0069 293.881 95.9904C288.091 95.9077 282.284 95.9242 276.493 95.9904C275.236 96.0069 274.922 95.6099 274.938 94.4022C274.988 86.9741 274.955 79.5294 274.971 72.1013C274.971 71.3403 274.938 70.6289 274.558 69.9176C266.501 54.6808 258.461 39.4275 250.404 24.1908C250.321 24.0254 250.205 23.893 249.941 23.496C248.915 25.2661 247.939 26.904 246.996 28.5418C241.57 37.9055 236.16 47.2692 230.667 56.5833C229.973 57.7745 230.403 58.5355 230.965 59.4785C237.649 70.7944 244.299 82.1433 250.966 93.4758C251.38 94.1706 251.744 94.882 252.141 95.5934C251.529 96.1889 250.867 95.9408 250.288 95.9408C243.803 95.9573 237.301 95.9077 230.816 95.9904C229.41 96.0069 228.682 95.5106 228.004 94.3526C223.107 85.998 218.111 77.6931 213.247 69.322C212.42 67.8992 211.526 67.3367 209.839 67.4029C205.471 67.5518 205.471 67.4525 205.471 71.8697C205.471 79.2316 205.422 86.6101 205.504 93.9721C205.521 95.4775 205.223 96.0235 203.585 95.9904C197.911 95.8746 192.236 95.9077 186.562 95.9739C185.271 95.9904 184.99 95.5768 184.99 94.3691C185.023 70.6289 185.023 46.8722 184.99 23.132C184.99 21.8747 185.255 21.3784 186.645 21.3949C192.385 21.4776 198.109 21.4611 203.85 21.3949C205.223 21.3784 205.521 21.8416 205.504 23.1155C205.455 31.3708 205.504 39.6261 205.438 47.8648C205.422 49.271 205.852 49.4861 207.208 49.7012C211.096 50.3133 213.098 48.6589 214.901 45.2675C218.938 37.6574 223.487 30.3285 227.789 22.8508C228.384 21.8085 229.046 21.3618 230.303 21.3784C244.051 21.428 257.782 21.428 271.53 21.3784C272.788 21.3784 273.4 21.7258 273.929 22.9169C277.37 30.7421 280.894 38.5342 284.401 46.3428C284.616 46.8722 284.881 47.3685 285.278 48.1791Z" fill="white"/>
<path d="M383.464 40.9161C379.543 30.4274 371.735 24.025 360.832 21.4773C354.43 19.9883 347.978 19.9552 341.542 21.3118C331.054 23.5452 323.394 29.3686 318.844 39.1459C315.982 45.3002 314.99 51.8349 314.99 59.5774C314.857 62.4725 315.304 66.3437 316.164 70.1488C318.729 81.6467 324.966 90.2163 336.215 94.5507C343.015 97.1646 350.112 97.5617 357.259 96.5525C369.319 94.8651 378.385 88.8101 383.084 77.3784C387.997 65.3677 387.997 53.0426 383.464 40.9161ZM362.718 70.8602C360.65 76.088 356.663 79.1816 350.823 79.1982C345 79.1982 341.129 76.1376 338.829 70.976C337.092 67.0717 336.447 62.9192 336.579 58.6675C336.447 54.5315 337.076 50.5114 338.697 46.7064C340.947 41.462 344.785 38.2856 350.691 38.1698C356.068 38.0706 360.584 41.0981 362.735 46.574C365.878 54.6143 365.895 62.8199 362.718 70.8602Z" fill="white"/>
<path d="M337.738 4.40421C340.749 4.35458 343.743 4.2884 346.754 4.27186C353.719 4.25532 360.684 4.30495 367.649 4.23877C369.105 4.22223 369.75 4.61928 369.551 6.1413C369.403 7.3159 369.75 8.52359 369.336 9.68164C369.105 9.79745 368.857 9.83054 368.608 9.83054C358.732 9.83054 348.855 9.81399 338.979 9.86363C337.771 9.86363 337.407 9.45003 337.539 8.32506C337.672 7.03466 337.324 5.69462 337.738 4.40421Z" fill="white"/>
<path d="M264.201 127.952C264.201 122.939 264.201 118.241 264.201 113.542C264.201 112.632 263.936 111.656 265.508 111.656C267.113 111.656 266.782 112.698 266.782 113.575C266.799 119.051 266.815 124.527 266.765 130.003C266.765 130.632 267.295 131.658 266.071 131.823C265.144 131.955 264.284 131.955 263.606 130.963C260.28 126.082 256.856 121.252 253.481 116.404C253.315 116.156 253.249 115.825 252.885 115.792C252.885 119.912 252.885 124.014 252.885 128.134C252.885 128.944 252.836 129.772 252.902 130.582C252.968 131.558 252.604 131.889 251.611 131.906C250.602 131.922 250.354 131.558 250.371 130.599C250.404 124.875 250.371 119.151 250.404 113.41C250.404 112.847 249.907 111.871 251.016 111.756C251.909 111.656 252.803 111.54 253.497 112.566C256.674 117.248 259.949 121.864 263.192 126.512C263.457 126.893 263.738 127.307 264.201 127.952Z" fill="white"/>
<path d="M233.412 119.896C233.048 114.949 229.276 111.392 224.363 111.326C218.639 111.26 214.801 115.429 214.768 121.897C214.801 122.278 214.85 122.774 214.867 123.271C215.198 128.349 218.804 132.022 223.569 132.188C228.846 132.353 232.701 129.193 233.363 124.032C233.545 122.675 233.512 121.269 233.412 119.896ZM230.583 125.173C229.574 128.515 226.828 130.302 223.37 129.921C220.062 129.574 217.613 126.86 217.332 123.237C217.299 122.741 217.332 122.228 217.332 121.732C217.332 117.728 218.92 114.982 221.815 113.973C226.514 112.352 230.699 115.478 231.08 120.888C231.195 122.361 231.013 123.783 230.583 125.173Z" fill="white"/>
<path d="M319.789 131.857C318.085 131.857 316.381 131.807 314.694 131.874C313.685 131.907 313.42 131.51 313.42 130.55C313.453 124.694 313.453 118.837 313.42 112.981C313.42 112.005 313.718 111.657 314.71 111.674C317.92 111.723 321.129 111.723 324.355 111.674C325.282 111.657 325.745 111.889 325.728 112.931C325.712 113.973 325.1 113.973 324.355 113.973C322.023 113.957 319.69 114.006 317.357 113.957C316.315 113.924 315.951 114.238 315.901 115.33C315.686 120.409 315.653 120.409 320.633 120.409C321.46 120.409 322.271 120.425 323.098 120.409C323.876 120.392 324.554 120.326 324.57 121.517C324.587 122.675 324.008 122.675 323.164 122.675C321.212 122.642 319.26 122.725 317.308 122.642C316.216 122.593 315.951 122.99 315.918 124.032C315.719 129.607 315.686 129.607 321.278 129.607C322.535 129.607 323.793 129.64 325.05 129.59C325.977 129.557 326.241 129.954 326.241 130.831C326.241 131.692 325.844 131.89 325.083 131.89C323.33 131.84 321.559 131.857 319.789 131.857Z" fill="white"/>
<path d="M288.967 132.204C287.445 132.22 285.973 131.972 284.517 131.526C283.458 131.211 283.293 130.467 283.508 129.64C283.822 128.399 284.616 129.325 285.129 129.458C287.048 129.937 288.967 130.186 290.936 129.838C293.004 129.474 294.129 128.3 294.228 126.546C294.344 124.561 293.07 123.767 291.449 123.27C289.943 122.807 288.421 122.443 286.932 121.947C284.831 121.235 283.541 119.78 283.475 117.497C283.409 115.164 284.335 113.278 286.469 112.236C289.364 110.813 292.359 111.243 295.32 112.169C296.346 112.484 296.147 113.377 296.015 114.072C295.833 115.081 295.105 114.386 294.691 114.271C293.037 113.807 291.383 113.46 289.662 113.642C287.578 113.873 286.287 114.998 286.105 116.686C285.923 118.274 286.883 119.449 288.984 120.094C290.191 120.474 291.416 120.723 292.623 121.087C295.452 121.947 296.875 123.634 296.892 126.132C296.925 128.829 295.436 130.814 292.706 131.741C291.482 132.138 290.241 132.204 288.967 132.204Z" fill="white"/>
<path d="M194.702 132.236C190.649 132.17 187.092 131.062 185.305 126.992C183.386 122.608 183.783 118.323 186.877 114.634C189.789 111.16 193.776 110.878 197.978 111.706C199.119 111.937 199.186 112.698 199.037 113.542C198.805 114.849 197.912 113.956 197.415 113.856C191.642 112.781 187.373 115.395 186.91 120.391C186.232 127.604 190.153 131.012 197.631 129.755C198.11 129.672 198.921 128.977 199.053 130.168C199.136 130.896 199.268 131.74 198.127 131.856C197.697 131.905 197.267 132.071 196.836 132.121C196.142 132.17 195.447 132.187 194.702 132.236Z" fill="white"/>
<path d="M362.653 121.698C362.653 119.002 362.62 116.289 362.67 113.592C362.686 112.765 362.19 111.673 363.861 111.656C365.614 111.64 365.184 112.781 365.184 113.691C365.201 118.406 365.251 123.121 365.168 127.82C365.135 129.209 365.515 129.689 366.938 129.606C369.188 129.491 371.471 129.606 373.721 129.557C374.664 129.54 375.077 129.805 375.061 130.831C375.044 131.906 374.383 131.84 373.671 131.84C370.396 131.84 367.137 131.807 363.861 131.856C362.835 131.873 362.604 131.476 362.604 130.533C362.686 127.605 362.653 124.66 362.653 121.698Z" fill="white"/>
<path d="M345.283 121.699C345.283 124.66 345.25 127.605 345.299 130.566C345.316 131.526 345.035 131.906 344.026 131.906C343.083 131.906 342.686 131.658 342.686 130.633C342.719 124.726 342.719 118.82 342.686 112.914C342.686 111.855 343.132 111.69 344.042 111.673C345.101 111.64 345.299 112.12 345.283 113.047C345.25 115.925 345.283 118.804 345.283 121.699Z" fill="white"/>
<path d="M337.738 4.40332C337.738 5.52829 337.837 6.66981 337.705 7.77823C337.539 9.3168 338.151 9.68076 339.607 9.66421C349.202 9.61458 358.798 9.63113 368.393 9.63113C368.707 9.63113 369.022 9.64767 369.336 9.66421C368.972 10.326 368.343 10.0778 367.814 10.0778C358.252 10.0943 348.673 10.0613 339.111 10.1109C337.738 10.1109 337.043 9.78002 337.307 8.32417C337.556 7.05031 336.811 5.6441 337.738 4.40332Z" fill="white"/>
<path d="M115.357 144.992C115.424 144.033 116.152 144.215 116.747 144.165C116.449 144.711 115.953 144.926 115.357 144.992Z" fill="white"/>
</svg>
