<svg width="750" height="600" viewBox="0 0 750 600" fill="none" xmlns="http://www.w3.org/2000/svg">
<rect width="750" height="600" fill="#5C16FF"/>
<path d="M216.5 239C183.088 239 156 266.088 156 299.5C156 332.912 183.088 360 216.5 360C249.912 360 277 332.912 277 299.5C277 266.088 249.946 239 216.5 239ZM250.927 313.501C249.202 315.225 247.511 315.225 245.752 313.467L232.631 300.345C232.394 300.109 232.158 299.906 231.955 299.703V324.728H224.954V297.572C224.954 296.896 224.684 296.592 224.109 296.592H209.06C208.451 296.592 208.215 296.93 208.215 297.572V324.728H201.214V299.703C200.978 299.906 200.741 300.109 200.538 300.345L187.417 313.467C185.658 315.259 183.967 315.259 182.243 313.501L169.865 301.259C168.141 299.534 168.141 297.843 169.899 296.084L191.678 274.306L197.19 279.818L178.928 298.08C178.523 298.485 178.455 298.824 178.895 299.229L184.644 304.978C185.016 305.35 185.388 305.35 185.827 304.945L195.161 295.611C198.171 292.601 200.876 290.91 203.379 290.2C204.089 289.896 204.934 289.794 206.016 289.794H227.017C228.1 289.794 228.945 289.93 229.655 290.2C232.158 290.91 234.897 292.601 237.873 295.611L247.207 304.945C247.612 305.35 248.018 305.35 248.39 304.978L254.139 299.229C254.545 298.824 254.511 298.485 254.105 298.08L235.844 279.818L241.356 274.306L263.135 296.084C264.893 297.877 264.893 299.534 263.169 301.259L250.927 313.501Z" fill="white"/>
<path d="M324.174 257.99C335.122 257.99 339.785 264.748 339.785 272.52C339.785 279.852 335.527 287.793 324.174 287.793H309.07C308.292 287.793 307.853 288.165 307.853 289.01V306.58H299.372V287.354C299.372 281.88 301.67 279.65 307.008 279.65H324.512C329.344 279.65 331.27 276.338 331.27 272.959C331.27 269.445 329.175 266.472 324.579 266.472H299.271V257.99H324.174Z" fill="white"/>
<path d="M387.125 257.99V266.472H362.796C357.694 266.472 355.464 268.837 355.464 272.588C355.464 276.541 357.998 278.332 362.864 278.332H386.787V286.036H362.661C357.762 286.036 355.261 287.996 355.261 291.949C355.261 295.768 357.627 298.065 362.594 298.065H387.227V306.58H362.594C351.071 306.58 346.408 300.904 346.408 293.335C346.408 287.793 348.942 284.042 353.403 282.184C348.875 280.326 346.577 276.575 346.577 271.236C346.577 263.464 351.409 257.99 362.864 257.99H387.125Z" fill="white"/>
<path d="M406.622 306.58H398.141V267.721C398.141 261.368 401.756 257.145 409.291 257.145C416.049 257.145 419.091 260.591 421.084 266.133L435.276 297.152C435.85 298.301 436.797 299.179 438.385 299.179C440.176 299.179 441.257 298.098 441.257 296.442V257.989H449.84V296.814C449.84 303.234 446.156 307.458 438.689 307.458C431.931 307.458 428.822 304.011 426.795 298.47L412.603 267.451C411.961 265.998 411.082 265.356 409.562 265.356C407.602 265.356 406.622 266.437 406.622 268.16V306.58Z" fill="white"/>
<path d="M494.645 257.99V266.472H480.453V306.58H471.871V266.472H457.679V257.99H494.645Z" fill="white"/>
<path d="M541.444 257.99V266.472H517.115C512.013 266.472 509.783 268.837 509.783 272.588C509.783 276.541 512.317 278.332 517.183 278.332H541.106V286.036H516.98C512.081 286.036 509.58 287.996 509.58 291.949C509.58 295.768 511.945 298.065 516.913 298.065H541.546V306.58H516.879C505.356 306.58 500.693 300.904 500.693 293.335C500.693 287.793 503.228 284.042 507.688 282.184C503.16 280.326 500.862 276.575 500.862 271.236C500.862 263.464 505.694 257.99 517.149 257.99H541.444Z" fill="white"/>
<path d="M591.487 257.99V266.472H572.7C563.34 266.472 559.218 271.168 559.218 282.319C559.218 293.402 563.239 298.099 572.7 298.099H591.487V306.58H572.7C558.508 306.58 550.736 298.572 550.736 282.319C550.736 265.965 558.576 257.99 572.7 257.99H591.487Z" fill="white"/>
<path d="M303.697 341.789H299.812L306.874 323.914C307.617 322.022 309.002 321.312 311.097 321.312C313.192 321.312 314.544 322.022 315.287 323.914L322.079 341.789H318.193L312.077 325.604C311.908 325.131 311.57 324.928 311.097 324.928C310.624 324.928 310.286 325.131 310.084 325.604L303.697 341.789Z" fill="white"/>
<path d="M355.531 321.684V325.198H345.225C343.401 325.198 342.59 326.178 342.59 327.597C342.59 328.813 343.232 329.996 345.563 329.996H350.294C355.768 329.996 357.052 333.037 357.052 335.943C357.052 339.356 355.227 341.856 350.632 341.856H339.413V338.342H350.733C352.625 338.342 353.504 337.295 353.504 335.842C353.504 334.524 352.828 333.341 350.328 333.341H345.631C340.258 333.341 339.008 330.334 339.008 327.529C339.008 324.184 340.799 321.751 345.259 321.751H355.531V321.684Z" fill="white"/>
<path d="M391.417 321.684V325.198H381.111C379.286 325.198 378.475 326.178 378.475 327.597C378.475 328.813 379.117 329.996 381.449 329.996H386.146C391.62 329.996 392.904 333.037 392.904 335.943C392.904 339.356 391.079 341.856 386.484 341.856H375.299V338.342H386.619C388.511 338.342 389.39 337.295 389.39 335.842C389.39 334.524 388.714 333.341 386.213 333.341H381.516C376.144 333.341 374.894 330.334 374.894 327.529C374.894 324.184 376.684 321.751 381.145 321.751H391.417V321.684Z" fill="white"/>
<path d="M415.272 321.684V341.823H411.758V321.684H415.272Z" fill="white"/>
<path d="M450.584 321.684V325.198H440.278C438.453 325.198 437.642 326.178 437.642 327.597C437.642 328.813 438.284 329.996 440.615 329.996H445.312C450.786 329.996 452.07 333.037 452.07 335.943C452.07 339.356 450.246 341.856 445.65 341.856H434.432V338.342H445.752C447.644 338.342 448.522 337.295 448.522 335.842C448.522 334.524 447.847 333.341 445.346 333.341H440.649C435.277 333.341 434.026 330.334 434.026 327.529C434.026 324.184 435.817 321.751 440.278 321.751H450.584V321.684Z" fill="white"/>
<path d="M483.765 321.684V325.198H477.885V341.823H474.337V325.198H468.458V321.684H483.765Z" fill="white"/>
<path d="M501.91 341.789H498.024L505.087 323.914C505.83 322.022 507.215 321.312 509.31 321.312C511.405 321.312 512.757 322.022 513.5 323.914L520.292 341.789H516.372L510.256 325.604C510.088 325.131 509.75 324.928 509.277 324.928C508.803 324.928 508.466 325.131 508.263 325.604L501.91 341.789Z" fill="white"/>
<path d="M541.681 341.789H538.167V325.671C538.167 323.035 539.654 321.278 542.796 321.278C545.601 321.278 546.851 322.698 547.696 324.995L553.575 337.835C553.812 338.309 554.217 338.68 554.859 338.68C555.603 338.68 556.042 338.241 556.042 337.531V321.616H559.59V337.7C559.59 340.37 558.069 342.127 554.961 342.127C552.156 342.127 550.872 340.708 550.027 338.41L544.148 325.57C543.878 324.961 543.506 324.691 542.898 324.691C542.087 324.691 541.681 325.13 541.681 325.84V341.789Z" fill="white"/>
<path d="M593.042 321.684V325.198H587.163V341.823H583.615V325.198H577.735V321.684H593.042Z" fill="white"/>
</svg>
